<svg width="27" height="26" viewBox="0 0 27 26" fill="none" xmlns="http://www.w3.org/2000/svg">
<path fill-rule="evenodd" clip-rule="evenodd" d="M16.7871 7.66046L8.37695 16.0593C8.26847 15.8491 8.17063 15.6302 8.08288 15.4031C7.78918 14.64 7.64233 13.8303 7.64233 12.9752C7.64233 12.1194 7.78918 11.3101 8.08288 10.547C8.37695 9.78355 8.78422 9.12122 9.30497 8.55901C9.82572 7.99722 10.4516 7.55285 11.1821 7.22561C11.913 6.8987 12.7149 6.73507 13.5882 6.73507C14.4618 6.73507 15.2682 6.90277 16.0069 7.23851C16.2815 7.36309 16.5415 7.50363 16.7871 7.66046ZM16.0449 18.7747C15.3141 19.1019 14.5121 19.2653 13.6388 19.2653C12.7652 19.2653 11.9589 19.0976 11.2198 18.7621C10.9455 18.6372 10.6855 18.4967 10.4404 18.3395L18.8501 9.9414C18.9585 10.1512 19.0565 10.3698 19.1441 10.5972C19.4378 11.3603 19.5848 12.17 19.5848 13.0254C19.5848 13.8809 19.4378 14.6903 19.1441 15.4537C18.8501 16.2168 18.4429 16.8791 17.922 17.4409C17.4013 18.0028 16.7758 18.4474 16.0449 18.7747ZM17.3174 21.3788C18.4429 20.8923 19.4171 20.2341 20.2401 19.4034C21.0631 18.5734 21.7011 17.6045 22.1547 16.4976C22.6084 15.3906 22.8352 14.2163 22.8352 12.9752C22.8352 11.7338 22.6084 10.5595 22.1547 9.4522C21.8857 8.7957 21.5546 8.18937 21.1617 7.63298L26.6317 2.17057L24.4581 0L18.9714 5.47904C18.4789 5.14365 17.9441 4.85374 17.3676 4.60898C16.2421 4.13101 14.9993 3.89169 13.6388 3.89169C12.2781 3.89169 11.0353 4.13509 9.90974 4.62155C8.78422 5.10801 7.80992 5.76623 6.98692 6.59658C6.16392 7.42692 5.52551 8.39579 5.07204 9.50276C4.61858 10.6098 4.3918 11.784 4.3918 13.0254C4.3918 14.2665 4.61858 15.4404 5.07204 16.5478C5.34128 17.2047 5.67236 17.8109 6.06535 18.3677L0.595703 23.8294L2.76927 26L8.25556 20.5213C8.74812 20.8567 9.28288 21.1466 9.85936 21.3914C10.985 21.8694 12.2278 22.1083 13.5882 22.1083C14.9489 22.1083 16.1917 21.8649 17.3174 21.3788Z" fill="#2E2E2E"/>
</svg>
