<svg width="10" height="8" viewBox="0 0 10 8" fill="none" xmlns="http://www.w3.org/2000/svg">
<path d="M4.76439 7.33598C4.59627 7.3361 4.43008 7.30017 4.27703 7.2306L2.65343 6.49189C2.62583 6.47934 2.60434 6.45635 2.5937 6.42795C2.58306 6.39956 2.58413 6.36811 2.59668 6.34051C2.60923 6.31291 2.63223 6.29142 2.66062 6.28078C2.68901 6.27014 2.72047 6.27121 2.74807 6.28376L4.37178 7.02258C4.5235 7.09123 4.69056 7.11892 4.85631 7.10287C5.02207 7.08683 5.18072 7.02762 5.31645 6.93114L8.64652 4.5622C8.70465 4.52017 8.74574 4.45865 8.76233 4.38886C8.77892 4.31907 8.76989 4.24565 8.73689 4.18195C8.7039 4.11826 8.64912 4.06853 8.58255 4.04182C8.51597 4.01511 8.44202 4.0132 8.37415 4.03643L5.96132 4.86955C5.93266 4.87945 5.90124 4.87756 5.87398 4.86429C5.84671 4.85102 5.82583 4.82746 5.81593 4.7988C5.80604 4.77014 5.80793 4.73872 5.8212 4.71145C5.83447 4.68419 5.85802 4.66331 5.88669 4.65341L8.3002 3.81904C8.42025 3.77771 8.55117 3.78103 8.66897 3.82838C8.78677 3.87573 8.88356 3.96395 8.9416 4.07687C8.99964 4.18979 9.01505 4.31984 8.98499 4.4432C8.95494 4.56655 8.88144 4.67494 8.77796 4.74851L5.44904 7.11768C5.24908 7.25988 5.00976 7.33619 4.76439 7.33598Z" fill="#FFCD6A"/>
<path d="M4.35654 5.30163C4.32856 5.30166 4.30154 5.29142 4.2806 5.27286C4.25966 5.25429 4.24626 5.2287 4.24293 5.20091C4.23961 5.17313 4.24659 5.14509 4.26256 5.12211C4.27852 5.09913 4.30237 5.08281 4.32956 5.07623L5.72903 4.73505C5.80369 4.71386 5.86818 4.66641 5.91062 4.60143C5.95306 4.53645 5.9706 4.45833 5.95999 4.38145C5.94939 4.30456 5.91136 4.2341 5.85292 4.18304C5.79447 4.13197 5.71954 4.10375 5.64193 4.10356L4.35871 4.12642C4.33967 4.12639 4.3209 4.12197 4.30385 4.1135L3.84311 3.87348C3.50369 3.69607 3.12282 3.61317 2.74037 3.63345L2.70528 3.63494C2.69024 3.63571 2.67521 3.63346 2.66105 3.62834C2.6469 3.62322 2.63391 3.61532 2.62284 3.60511C2.61178 3.5949 2.60287 3.58258 2.59663 3.56888C2.5904 3.55518 2.58696 3.54037 2.58652 3.52533C2.58591 3.51032 2.58826 3.49535 2.59344 3.48125C2.59861 3.46716 2.60652 3.45422 2.6167 3.44318C2.62688 3.43214 2.63913 3.42322 2.65276 3.41691C2.66639 3.41061 2.68113 3.40706 2.69613 3.40646L2.72974 3.4052C3.15254 3.38267 3.57362 3.4743 3.94884 3.67048L4.38317 3.89725L5.63667 3.87439C5.77031 3.8735 5.89971 3.92126 6.00073 4.00876C6.10175 4.09625 6.16749 4.21751 6.18568 4.34991C6.20387 4.48231 6.17327 4.61681 6.09959 4.72831C6.02592 4.83981 5.91419 4.92069 5.78526 4.95588L4.38374 5.29831C4.37483 5.30048 4.3657 5.30159 4.35654 5.30163Z" fill="#FFCD6A"/>
<path d="M2.41112 6.77329H1.40393C1.29684 6.77317 1.19417 6.73057 1.11844 6.65485C1.04272 6.57912 1.00012 6.47645 1 6.36936V3.3783C1.00012 3.27122 1.04272 3.16856 1.11845 3.09286C1.19418 3.01715 1.29685 2.97458 1.40393 2.97449H2.41112C2.51819 2.97461 2.62085 3.01719 2.69657 3.09289C2.77229 3.16859 2.8149 3.27123 2.81505 3.3783V6.36936C2.81493 6.47645 2.77233 6.57912 2.69661 6.65485C2.62088 6.73057 2.51821 6.77317 2.41112 6.77329ZM1.40393 3.20308C1.35746 3.20311 1.31289 3.22158 1.28002 3.25443C1.24715 3.28728 1.22866 3.33183 1.2286 3.3783V6.36936C1.22866 6.41585 1.24715 6.46041 1.28002 6.49328C1.31288 6.52614 1.35745 6.54464 1.40393 6.5447H2.41112C2.4576 6.54464 2.50217 6.52614 2.53503 6.49328C2.5679 6.46041 2.58639 6.41585 2.58645 6.36936V3.3783C2.58639 3.33183 2.5679 3.28728 2.53503 3.25443C2.50215 3.22158 2.45759 3.20311 2.41112 3.20308H1.40393Z" fill="#FFCD6A"/>
<path d="M5.61859 2.67103C5.45334 2.67106 5.29179 2.62207 5.15437 2.53028C5.01696 2.43849 4.90985 2.308 4.84659 2.15534C4.78334 2.00267 4.76678 1.83467 4.799 1.67259C4.83123 1.5105 4.91079 1.36162 5.02764 1.24476C5.14448 1.1279 5.29336 1.04831 5.45544 1.01606C5.61751 0.983815 5.78551 1.00035 5.93819 1.06359C6.09087 1.12682 6.22136 1.23391 6.31318 1.37132C6.40499 1.50872 6.454 1.67026 6.454 1.83552C6.45375 2.05702 6.36566 2.26938 6.20905 2.42601C6.05244 2.58264 5.84009 2.67076 5.61859 2.67103Z" fill="#FFCD6A"/>
<path d="M5.85079 2.39633C5.73989 2.44228 5.61784 2.45431 5.5001 2.4309C5.38236 2.40748 5.27421 2.34968 5.18932 2.26479C5.10443 2.1799 5.04663 2.07175 5.02321 1.95401C4.9998 1.83627 5.01183 1.71423 5.05778 1.60332C5.10373 1.49242 5.18154 1.39763 5.28136 1.33095C5.38119 1.26427 5.49855 1.22869 5.61859 1.22871C5.77946 1.22892 5.93368 1.29292 6.04744 1.40667C6.16119 1.52043 6.22519 1.67465 6.2254 1.83552M4.76439 7.33598C4.59627 7.3361 4.43008 7.30017 4.27703 7.2306L2.65343 6.49189C2.62583 6.47934 2.60434 6.45634 2.5937 6.42795C2.58306 6.39956 2.58413 6.36811 2.59668 6.34051C2.60923 6.31291 2.63223 6.29142 2.66062 6.28078C2.68901 6.27014 2.72047 6.27121 2.74807 6.28376L4.37178 7.02258C4.5235 7.09123 4.69056 7.11892 4.85631 7.10287C5.02207 7.08683 5.18072 7.02762 5.31645 6.93114L8.64652 4.5622C8.70465 4.52017 8.74574 4.45865 8.76233 4.38886C8.77892 4.31907 8.76989 4.24565 8.73689 4.18195C8.7039 4.11826 8.64912 4.06853 8.58255 4.04182C8.51597 4.01511 8.44202 4.0132 8.37415 4.03643L5.96132 4.86955C5.93266 4.87945 5.90124 4.87756 5.87398 4.86429C5.84671 4.85102 5.82583 4.82746 5.81593 4.7988C5.80604 4.77014 5.80793 4.73872 5.8212 4.71145C5.83447 4.68419 5.85802 4.66331 5.88669 4.65341L8.3002 3.81904C8.42025 3.77771 8.55117 3.78103 8.66897 3.82838C8.78677 3.87573 8.88356 3.96395 8.9416 4.07687C8.99964 4.18979 9.01505 4.31984 8.98499 4.4432C8.95494 4.56655 8.88144 4.67494 8.77796 4.74851L5.44904 7.11768C5.24908 7.25988 5.00976 7.33619 4.76439 7.33598ZM4.35654 5.30163C4.32856 5.30166 4.30154 5.29142 4.2806 5.27286C4.25966 5.25429 4.24626 5.2287 4.24293 5.20091C4.23961 5.17313 4.24659 5.14509 4.26256 5.12211C4.27852 5.09913 4.30237 5.08281 4.32956 5.07623L5.72903 4.73505C5.80369 4.71386 5.86818 4.66641 5.91062 4.60143C5.95306 4.53645 5.9706 4.45833 5.95999 4.38145C5.94939 4.30456 5.91136 4.2341 5.85292 4.18304C5.79447 4.13197 5.71954 4.10375 5.64193 4.10356L4.35871 4.12642C4.33967 4.12639 4.3209 4.12197 4.30385 4.1135L3.84311 3.87348C3.50369 3.69607 3.12282 3.61317 2.74037 3.63345L2.70528 3.63494C2.69024 3.63571 2.67521 3.63346 2.66105 3.62834C2.6469 3.62322 2.63391 3.61532 2.62284 3.60511C2.61178 3.5949 2.60287 3.58258 2.59663 3.56888C2.5904 3.55518 2.58696 3.54037 2.58652 3.52533C2.58591 3.51032 2.58826 3.49535 2.59344 3.48125C2.59861 3.46716 2.60652 3.45422 2.6167 3.44318C2.62688 3.43214 2.63913 3.42322 2.65276 3.41691C2.66639 3.41061 2.68113 3.40706 2.69613 3.40646L2.72974 3.4052C3.15254 3.38267 3.57362 3.4743 3.94884 3.67048L4.38317 3.89725L5.63667 3.87439C5.77031 3.8735 5.89971 3.92126 6.00073 4.00876C6.10175 4.09625 6.16749 4.21751 6.18568 4.34991C6.20387 4.48231 6.17327 4.61681 6.09959 4.72831C6.02592 4.83981 5.91419 4.92069 5.78526 4.95588L4.38374 5.29831C4.37483 5.30048 4.3657 5.30159 4.35654 5.30163ZM2.41112 6.77329H1.40393C1.29684 6.77317 1.19417 6.73057 1.11844 6.65485C1.04272 6.57912 1.00012 6.47645 1 6.36936V3.3783C1.00012 3.27122 1.04272 3.16856 1.11845 3.09286C1.19418 3.01715 1.29685 2.97458 1.40393 2.97449H2.41112C2.51819 2.97461 2.62085 3.01719 2.69657 3.09289C2.77229 3.16859 2.8149 3.27123 2.81505 3.3783V6.36936C2.81493 6.47645 2.77233 6.57912 2.69661 6.65485C2.62088 6.73057 2.51821 6.77317 2.41112 6.77329ZM1.40393 3.20308C1.35746 3.20311 1.31289 3.22158 1.28002 3.25443C1.24715 3.28728 1.22866 3.33183 1.2286 3.3783V6.36936C1.22866 6.41585 1.24715 6.46041 1.28002 6.49328C1.31288 6.52614 1.35745 6.54464 1.40393 6.5447H2.41112C2.4576 6.54464 2.50217 6.52614 2.53503 6.49328C2.5679 6.46041 2.58639 6.41585 2.58645 6.36936V3.3783C2.58639 3.33183 2.5679 3.28728 2.53503 3.25443C2.50215 3.22158 2.45759 3.20311 2.41112 3.20308H1.40393ZM5.61859 2.67103C5.45334 2.67106 5.29179 2.62207 5.15437 2.53028C5.01696 2.43849 4.90985 2.308 4.84659 2.15534C4.78334 2.00267 4.76678 1.83467 4.799 1.67259C4.83123 1.5105 4.91079 1.36162 5.02764 1.24476C5.14448 1.1279 5.29336 1.04831 5.45544 1.01606C5.61751 0.983815 5.78551 1.00035 5.93819 1.06359C6.09087 1.12682 6.22137 1.23391 6.31318 1.37132C6.40499 1.50872 6.454 1.67026 6.454 1.83552C6.45375 2.05702 6.36566 2.26938 6.20905 2.42601C6.05244 2.58264 5.84009 2.67076 5.61859 2.67103Z" stroke="#FFCD6A" stroke-width="0.4"/>
</svg>