<svg width="28" height="28" viewBox="0 0 28 28" fill="none" xmlns="http://www.w3.org/2000/svg">
<path d="M25.9706 6.93193C24.7559 4.82639 23.0088 3.0774 20.9046 1.8605C18.7863 0.622317 16.3727 -0.0203433 13.9192 0.000502428C11.4651 -0.0205785 9.05092 0.622087 6.93209 1.8605C4.82845 3.07758 3.08194 4.82656 1.86785 6.93193C0.62692 9.05005 -0.0182404 11.4643 0.00066157 13.9191C-0.028443 16.8626 0.90347 19.7353 2.65498 22.1013C4.34613 24.4674 6.74975 26.2306 9.51452 27.1332C9.63583 27.1698 9.76406 27.1776 9.8889 27.1557C10.0137 27.1339 10.1317 27.0831 10.2334 27.0074C10.309 26.9396 10.3691 26.8564 10.4097 26.7634C10.4503 26.6704 10.4705 26.5697 10.4688 26.4682C10.4688 26.4323 10.4658 26.1058 10.4598 25.4888C10.4538 24.8718 10.4508 24.3327 10.4508 23.8714L10.0339 23.9433C9.70118 23.9961 9.3642 24.0172 9.02751 24.0062C8.60538 23.9984 8.18463 23.9557 7.76954 23.8786C7.32735 23.7985 6.91079 23.6136 6.55469 23.3395C6.1817 23.0578 5.90337 22.6691 5.75678 22.2253L5.57707 21.8083C5.42433 21.4786 5.23245 21.1685 5.00559 20.8846C4.8049 20.5936 4.53666 20.3556 4.22385 20.1909L4.09626 20.0993C4.00931 20.0366 3.93026 19.9636 3.86084 19.8818C3.79375 19.8062 3.73861 19.7207 3.6973 19.6285C3.66136 19.5434 3.69131 19.4739 3.78716 19.42C3.95362 19.3534 4.13311 19.3257 4.31191 19.3391L4.67133 19.393C4.99573 19.4797 5.30068 19.6273 5.56988 19.8279C5.92913 20.0726 6.22933 20.3943 6.44867 20.7696C6.68853 21.2222 7.03368 21.6105 7.45504 21.9018C7.80266 22.1472 8.21572 22.283 8.64113 22.2918C8.98772 22.2966 9.33392 22.2665 9.67446 22.2019C9.95628 22.1443 10.2302 22.0532 10.4903 21.9305C10.5501 21.2211 10.8656 20.5575 11.3781 20.0634C10.7531 20.0014 10.1337 19.8921 9.5253 19.7363C8.93018 19.5729 8.35785 19.3356 7.82165 19.03C7.26038 18.7245 6.76457 18.3118 6.3624 17.8152C5.93158 17.2444 5.60933 16.5993 5.41174 15.912C5.14778 15.0303 5.01992 14.1134 5.03255 13.193C5.00429 11.8085 5.52053 10.4683 6.47023 9.46045C6.02517 8.25937 6.071 6.93134 6.59782 5.76381C7.12996 5.67784 7.67566 5.76344 8.15591 6.00822C8.67757 6.204 9.18344 6.43952 9.66907 6.71268C9.98896 6.90557 10.2459 7.06851 10.44 7.20149C12.7176 6.5733 15.1227 6.5733 17.4002 7.20149L18.0885 6.76659C18.6179 6.44841 19.1763 6.18124 19.7562 5.96868C20.2118 5.74737 20.7263 5.67747 21.2244 5.7692C21.4904 6.34562 21.64 6.96886 21.6647 7.6032C21.6893 8.23753 21.5886 8.87051 21.3682 9.46584C22.3177 10.4738 22.834 11.814 22.8059 13.1984C22.8202 14.1213 22.6948 15.0411 22.4339 15.9264C22.2386 16.6163 21.9128 17.2623 21.4742 17.8296C21.0653 18.3205 20.5671 18.7297 20.006 19.0354C19.4698 19.3409 18.8974 19.5781 18.3024 19.7417C17.6922 19.8977 17.071 20.0071 16.4441 20.0687C16.7799 20.4026 17.0382 20.8062 17.201 21.2508C17.3637 21.6955 17.4268 22.1705 17.3858 22.6422V26.4664C17.3837 26.5671 17.4027 26.6672 17.4418 26.7601C17.4808 26.8529 17.5389 26.9366 17.6123 27.0056C17.713 27.083 17.831 27.1349 17.9562 27.1568C18.0814 27.1787 18.21 27.17 18.3311 27.1314C21.0959 26.2289 23.4996 24.4657 25.1906 22.0995C26.7713 19.9168 27.6867 17.3234 27.8264 14.6321C27.9661 11.9407 27.324 9.26651 25.9778 6.93193H25.9706Z" fill="#FFF"/>
</svg>