<svg class="logo" viewBox="0 0 47 61" fill="none" xmlns="http://www.w3.org/2000/svg"><path fill-rule="evenodd" clip-rule="evenodd" d="M42.988 4.81415C43.0306 4.86441 43.0563 4.92697 43.0613 4.99278C43.0877 5.31552 45.4233 37.3313 23.6002 44.7878C23.5347 44.8103 23.4636 44.8103 23.398 44.7878C1.57567 37.3313 3.91123 5.31552 3.93695 4.99278C3.9422 4.92717 3.96786 4.86486 4.01029 4.81465C4.05273 4.76445 4.10979 4.72891 4.17343 4.71304L23.4251 0.00861373C23.4738 -0.00287124 23.5244 -0.00287124 23.573 0.00861373L42.8241 4.71304C42.888 4.72848 42.9454 4.7639 42.988 4.81415ZM39.4448 8.23253C39.4795 8.27324 39.5006 8.32385 39.5051 8.37725H39.5073C39.5287 8.64049 41.4392 34.7784 23.582 40.865C23.5296 40.885 23.4716 40.885 23.4192 40.865C5.56132 34.7784 7.47248 8.64049 7.49393 8.37725C7.49807 8.32385 7.51897 8.27309 7.55364 8.23238C7.5883 8.19168 7.63494 8.16303 7.68682 8.15057L23.4377 4.30758C23.4776 4.29755 23.5193 4.29755 23.5592 4.30758L39.3115 8.15057C39.3634 8.16318 39.41 8.19188 39.4448 8.23253Z" fill="#798CE5"></path><path d="M23.2759 10.0442L12.7734 12.6047C12.7388 12.6136 12.7078 12.6331 12.6847 12.6604C12.6617 12.6878 12.6477 12.7218 12.6448 12.7575C12.6312 12.9332 11.3574 30.3588 23.2609 34.417C23.2966 34.4284 23.3352 34.4284 23.3709 34.417C35.2745 30.3581 34.0014 12.9332 33.987 12.7568C33.9843 12.721 33.9704 12.6869 33.9471 12.6595C33.9239 12.6322 33.8926 12.613 33.8577 12.6047L23.3559 10.0435C23.3297 10.0365 23.3022 10.0365 23.2759 10.0435" fill="#798CE5"></path><path d="M4.01715 57.2615V55.6813H6.56649V60.3289C5.33901 60.5309 4.34333 60.6319 3.57938 60.6319C2.21458 60.6319 1.27467 60.2589 0.759652 59.5128C0.253218 58.7667 0 57.5815 0 55.9578C0 54.3341 0.266093 53.1625 0.798281 52.4424C1.33047 51.7228 2.23604 51.3627 3.51501 51.3627C4.31328 51.3627 5.17595 51.4552 6.103 51.6393L6.56649 51.7318L6.51497 53.1405C5.48496 53.0264 4.63946 52.9689 3.97852 52.9689C3.32616 52.9689 2.86694 53.0479 2.60085 53.206C2.33475 53.364 2.13733 53.658 2.00857 54.0881C1.8884 54.5096 1.82831 55.2382 1.82831 56.2739C1.82831 57.301 1.95278 58.0206 2.20171 58.4331C2.45063 58.8457 2.96565 59.0522 3.74676 59.0522L4.81545 58.9992V57.2615H4.01715Z" fill="#798CE5"></path><path d="M9.94405 57.485C9.94405 58.5296 10.4634 59.0522 11.502 59.0522C12.5406 59.0522 13.0599 58.5296 13.0599 57.485V51.5207H14.8367V57.4455C14.8367 58.5426 14.5578 59.3502 13.9998 59.8683C13.4505 60.3773 12.6178 60.6319 11.502 60.6319C10.3861 60.6319 9.54923 60.3773 8.99126 59.8683C8.44191 59.3502 8.16727 58.5426 8.16727 57.4455V51.5207H9.94405V57.485Z" fill="#798CE5"></path><path d="M15.8722 60.4738L17.8421 51.5207H21.2155L23.1855 60.4738H21.4086L21.061 58.8546H17.9966L17.649 60.4738H15.8722ZM19.2198 53.0219L18.3314 57.2744H20.7262L19.8378 53.0219H19.2198Z" fill="#798CE5"></path><path d="M26.1283 57.472V60.4738H24.3515V51.5207H27.7506C29.8107 51.5207 30.8407 52.5038 30.8407 54.4701C30.8407 55.6377 30.4115 56.4978 29.5531 57.0509L30.8021 60.4738H28.8579L27.8407 57.472H26.1283ZM27.7763 55.9183C28.1969 55.9183 28.5102 55.7867 28.7163 55.5232C28.9223 55.2602 29.0252 54.9131 29.0252 54.4831C29.0252 54.053 28.9136 53.711 28.6905 53.4564C28.4759 53.2019 28.1626 53.0744 27.7506 53.0744H26.1283V55.9183H27.7763Z" fill="#798CE5"></path><path d="M35.2842 60.4738H32.3358V51.5207H35.2842C36.0396 51.5207 36.6619 51.6042 37.1512 51.7712C37.6405 51.9287 38.0181 52.1968 38.2842 52.5743C38.5589 52.9429 38.7477 53.3814 38.8507 53.891C38.9537 54.3911 39.0052 55.0451 39.0052 55.8527C39.0052 56.6599 38.958 57.3314 38.8636 57.867C38.7692 58.3936 38.5889 58.8676 38.3228 59.2887C38.0653 59.7012 37.6876 60.0043 37.1898 60.1973C36.692 60.3818 36.0568 60.4738 35.2842 60.4738ZM37.1512 56.9189C37.1683 56.6384 37.1769 56.2518 37.1769 55.7602C37.1769 55.2602 37.1597 54.8606 37.1254 54.5621C37.0911 54.264 37.0096 53.9915 36.8808 53.746C36.752 53.4999 36.5589 53.3334 36.3014 53.2454C36.0525 53.1489 35.7134 53.1009 35.2842 53.1009H34.1125V58.8941H35.2842C35.928 58.8941 36.3958 58.7271 36.6877 58.3936C36.9366 58.1215 37.0911 57.63 37.1512 56.9189Z" fill="#798CE5"></path><path d="M39.6867 60.4738L41.6567 51.5207H45.0301L47 60.4738H45.2232L44.8755 58.8546H41.8112L41.4635 60.4738H39.6867ZM43.0343 53.0219L42.1459 57.2744H44.5408L43.6524 53.0219H43.0343Z" fill="#798CE5"></path></svg>