<svg width="102" height="102" viewBox="0 0 102 102" fill="none" xmlns="http://www.w3.org/2000/svg">
<path d="M42.7233 22.7786C43.9694 21.5326 45.9896 21.5326 47.2357 22.7786L79.4725 55.0154C80.7185 56.2615 80.7185 58.2817 79.4725 59.5278L55.6566 83.3437C45.5086 93.4917 29.0555 93.4917 18.9075 83.3436C8.75946 73.1956 8.75946 56.7425 18.9075 46.5945L42.7233 22.7786Z" fill="#2E2E2E"/>
<path d="M49.2018 27.2264L62.2378 14.1904C66.6262 9.80206 73.741 9.80207 78.1294 14.1904L88.1857 24.2467C92.574 28.6351 92.574 35.7499 88.1857 40.1383L82.1022 46.2217" stroke="#2E2E2E" stroke-width="7.02313" stroke-linecap="round" stroke-linejoin="round"/>
<path d="M70.3076 23.9985L64.9691 29.3371" stroke="#2E2E2E" stroke-width="7.02313" stroke-linecap="round" stroke-linejoin="round"/>
<path d="M78.377 32.0693L73.0384 37.4079" stroke="#2E2E2E" stroke-width="7.02313" stroke-linecap="round" stroke-linejoin="round"/>
</svg>
