<svg width="28" height="28" viewBox="0 0 28 28" fill="none" xmlns="http://www.w3.org/2000/svg">
<path d="M23.4619 2.20919e-05H10.6631V17.2665H27.9436V4.46766C27.9436 3.87978 27.8276 3.29767 27.6022 2.75472C27.3768 2.21176 27.0464 1.71863 26.6301 1.30359C26.2137 0.888543 25.7196 0.559752 25.1759 0.33606C24.6322 0.112368 24.0498 -0.0018266 23.4619 2.20919e-05Z" fill="#142533"/>
<path d="M6.67385 0H4.46813C3.28323 0 2.14687 0.470696 1.30903 1.30854C0.471184 2.14639 0.000488281 3.28275 0.000488281 4.46764L0.000488281 6.67336H6.67385V0Z" fill="#142533"/>
<path d="M0 10.6635H6.67336V17.3368H0V10.6635Z" fill="#142533"/>
<path d="M21.3271 27.9439H23.5329C24.1208 27.9439 24.7029 27.8279 25.2458 27.6025C25.7888 27.3771 26.2819 27.0468 26.6969 26.6304C27.112 26.2141 27.4408 25.7199 27.6645 25.1763C27.8882 24.6326 28.0024 24.0501 28.0005 23.4623V21.3268H21.3271V27.9439Z" fill="#142533"/>
<path d="M10.6631 21.3268H17.3364V28.0001H10.6631V21.3268Z" fill="#142533"/>
<path d="M0 21.3268V23.5325C0 24.7174 0.470696 25.8538 1.30854 26.6916C2.14639 27.5294 3.28275 28.0001 4.46764 28.0001H6.67336V21.3268H0Z" fill="#142533"/>
</svg>
