<svg width="28" height="28" viewBox="0 0 28 28" fill="none" xmlns="http://www.w3.org/2000/svg">
<path d="M13.8876 5.77721H13.8474C12.3067 5.77721 11.0576 4.52812 11.0576 2.98743V2.94725C11.0576 1.40656 12.3067 0.157471 13.8474 0.157471H13.8876C15.4283 0.157471 16.6774 1.40656 16.6774 2.94725V2.98743C16.6774 4.52812 15.4283 5.77721 13.8876 5.77721Z" fill="#2E2E2E"/>
<path d="M13.8876 16.8351H13.8474C12.3067 16.8351 11.0576 15.586 11.0576 14.0453V14.0051C11.0576 12.4644 12.3067 11.2153 13.8474 11.2153H13.8876C15.4283 11.2153 16.6774 12.4644 16.6774 14.0051V14.0453C16.6774 15.586 15.4283 16.8351 13.8876 16.8351Z" fill="#2E2E2E"/>
<path d="M5.61973 14.0051V14.0453C5.61973 15.586 4.37065 16.8351 2.82996 16.8351H2.78978C1.24908 16.8351 0 15.586 0 14.0453V14.0051C0 12.4644 1.24908 11.2153 2.78978 11.2153H2.82996C4.37065 11.2153 5.61973 12.4644 5.61973 14.0051Z" fill="#2E2E2E"/>
<path d="M13.847 21.7778H13.8872C15.4277 21.7778 16.6766 23.0267 16.6766 24.5672V24.6074C16.6766 26.1479 15.4277 27.3968 13.8872 27.3968H13.847C12.3065 27.3968 11.0576 26.1479 11.0576 24.6074V24.5672C11.0576 23.0267 12.3065 21.7778 13.847 21.7778Z" fill="#2E2E2E"/>
<path d="M22.3799 14.0453V14.0051C22.3799 12.4644 23.629 11.2153 25.1697 11.2153H25.2098C26.7505 11.2153 27.9996 12.4644 27.9996 14.0051V14.0453C27.9996 15.586 26.7505 16.8351 25.2098 16.8351H25.1697C23.629 16.8351 22.3799 15.586 22.3799 14.0453Z" fill="#2E2E2E"/>
<path d="M6.38455 23.1299C7.36495 23.1299 8.15972 22.3352 8.15972 21.3548C8.15972 20.3744 7.36495 19.5796 6.38455 19.5796C5.40415 19.5796 4.60938 20.3744 4.60938 21.3548C4.60938 22.3352 5.40415 23.1299 6.38455 23.1299Z" fill="#2E2E2E"/>
<path d="M6.38455 7.26177C7.36495 7.26177 8.15972 6.467 8.15972 5.4866C8.15972 4.5062 7.36495 3.71143 6.38455 3.71143C5.40415 3.71143 4.60938 4.5062 4.60938 5.4866C4.60938 6.467 5.40415 7.26177 6.38455 7.26177Z" fill="#2E2E2E"/>
<path d="M21.1258 7.26177C22.1062 7.26177 22.9009 6.467 22.9009 5.4866C22.9009 4.5062 22.1062 3.71143 21.1258 3.71143C20.1454 3.71143 19.3506 4.5062 19.3506 5.4866C19.3506 6.467 20.1454 7.26177 21.1258 7.26177Z" fill="#2E2E2E"/>
<path d="M21.1297 23.1304C22.1101 23.1304 22.9048 22.3357 22.9048 21.3553C22.9048 20.3749 22.1101 19.5801 21.1297 19.5801C20.1493 19.5801 19.3545 20.3749 19.3545 21.3553C19.3545 22.3357 20.1493 23.1304 21.1297 23.1304Z" fill="#2E2E2E"/>
</svg>
