<svg width="107" height="30" viewBox="0 0 107 30" fill="none" xmlns="http://www.w3.org/2000/svg">
<path d="M55.6507 7.18943L50.9026 22.1085L46.1545 7.18943H43.9553L39.2072 22.1085L34.4591 7.18943H32.26L37.9327 24.9324H40.4817L45.0549 10.6131L49.6281 24.9324H52.1771L57.8498 7.18943H55.6507ZM57.3106 18.5849C57.3106 22.2334 60.0845 25.1823 63.708 25.1823C66.0821 25.1823 68.0063 23.8328 68.806 22.0585L68.906 24.9324H70.9551V12.2874H68.906L68.806 15.1613C68.0063 13.387 66.0821 12.0375 63.708 12.0375C60.0845 12.0375 57.3106 14.9863 57.3106 18.5849ZM59.4597 18.5849C59.4597 16.1359 61.4589 14.0617 64.0329 14.0617C66.6319 14.0617 68.5811 16.1359 68.5811 18.5849C68.5811 21.0839 66.6319 23.1581 64.0329 23.1581C61.4589 23.1581 59.4597 21.0839 59.4597 18.5849ZM76.2255 6.18983H74.0764V24.9324H76.2255V6.18983ZM80.9844 6.18983H78.8352V24.9324H80.9844V6.18983ZM96.2634 18.7348C96.2634 15.1613 93.8144 12.0375 89.9409 12.0375C86.1924 12.0375 83.6185 14.9863 83.6185 18.5349C83.6185 22.3584 86.3174 25.1823 90.1409 25.1823C93.4645 25.1823 95.4138 22.9831 95.9136 21.2588L94.0143 21.0089C93.4645 22.1335 92.215 23.258 90.1409 23.258C87.5419 23.258 85.8426 21.5837 85.7676 19.2846H96.2634V18.7348ZM89.9409 13.9617C92.415 13.9617 93.9893 15.761 94.1143 17.7352H85.7676C85.8426 15.6611 87.5669 13.9617 89.9409 13.9617ZM104.547 12.2874H101.923V8.5389H99.7987V12.2874H97.9995V14.3116H99.7987V24.9324H101.923V14.3116H104.547V12.2874Z" fill="#2E2E2E"/>
<path d="M9.73721 10.8707H9.70903C8.62878 10.8707 7.75299 9.99488 7.75299 8.91463V8.88646C7.75299 7.80621 8.62878 6.93042 9.70903 6.93042H9.73721C10.8175 6.93042 11.6932 7.80621 11.6932 8.88646V8.91463C11.6932 9.99488 10.8175 10.8707 9.73721 10.8707Z" fill="#2E2E2E"/>
<path d="M9.73721 18.6236H9.70903C8.62878 18.6236 7.75299 17.7478 7.75299 16.6676V16.6394C7.75299 15.5591 8.62878 14.6833 9.70903 14.6833H9.73721C10.8175 14.6833 11.6932 15.5591 11.6932 16.6394V16.6676C11.6932 17.7478 10.8175 18.6236 9.73721 18.6236Z" fill="#2E2E2E"/>
<path d="M3.94025 16.6394V16.6676C3.94025 17.7478 3.06446 18.6236 1.98421 18.6236H1.95604C0.87579 18.6236 0 17.7478 0 16.6676V16.6394C0 15.5591 0.87579 14.6833 1.95604 14.6833H1.98421C3.06446 14.6833 3.94025 15.5591 3.94025 16.6394Z" fill="#2E2E2E"/>
<path d="M9.70877 22.0891H9.73694C10.817 22.0891 11.6927 22.9648 11.6927 24.0449V24.0731C11.6927 25.1532 10.817 26.0288 9.73694 26.0288H9.70877C8.62867 26.0288 7.75299 25.1532 7.75299 24.0731V24.0449C7.75299 22.9648 8.62867 22.0891 9.70877 22.0891Z" fill="#2E2E2E"/>
<path d="M15.692 16.6676V16.6394C15.692 15.5591 16.5678 14.6833 17.6481 14.6833H17.6762C18.7565 14.6833 19.6323 15.5591 19.6323 16.6394V16.6676C19.6323 17.7478 18.7565 18.6236 17.6762 18.6236H17.6481C16.5678 18.6236 15.692 17.7478 15.692 16.6676Z" fill="#2E2E2E"/>
<path d="M4.47693 23.0374C5.16433 23.0374 5.72158 22.4802 5.72158 21.7927C5.72158 21.1053 5.16433 20.5481 4.47693 20.5481C3.78953 20.5481 3.23228 21.1053 3.23228 21.7927C3.23228 22.4802 3.78953 23.0374 4.47693 23.0374Z" fill="#2E2E2E"/>
<path d="M4.47693 11.9114C5.16433 11.9114 5.72158 11.3542 5.72158 10.6668C5.72158 9.97937 5.16433 9.42212 4.47693 9.42212C3.78953 9.42212 3.23228 9.97937 3.23228 10.6668C3.23228 11.3542 3.78953 11.9114 4.47693 11.9114Z" fill="#2E2E2E"/>
<path d="M14.8125 11.9114C15.4999 11.9114 16.0571 11.3542 16.0571 10.6668C16.0571 9.97937 15.4999 9.42212 14.8125 9.42212C14.1251 9.42212 13.5678 9.97937 13.5678 10.6668C13.5678 11.3542 14.1251 11.9114 14.8125 11.9114Z" fill="#2E2E2E"/>
<path d="M14.8153 23.0379C15.5027 23.0379 16.06 22.4806 16.06 21.7932C16.06 21.1058 15.5027 20.5486 14.8153 20.5486C14.1279 20.5486 13.5707 21.1058 13.5707 21.7932C13.5707 22.4806 14.1279 23.0379 14.8153 23.0379Z" fill="#2E2E2E"/>
</svg>
