<svg width="70" height="76" viewBox="0 0 70 76" fill="none" xmlns="http://www.w3.org/2000/svg">
<path fill-rule="evenodd" clip-rule="evenodd" d="M28.0863 47.1328L28.0863 22.9221L11.8031 38.7334C9.09845 41.3543 4.72345 41.3543 2.02434 38.7334C-0.674778 36.1125 -0.674778 31.8643 2.02434 29.238L30.1106 1.96567C32.8097 -0.655225 37.1903 -0.655225 39.8894 1.96567L67.9757 29.238C69.3252 30.5539 70 32.2671 70 33.9857C70 35.7097 69.3252 37.423 67.9757 38.7334C65.2766 41.3543 60.9016 41.3543 58.1969 38.7334L41.9137 22.9221L41.9137 47.1328C41.9137 50.8386 38.8164 53.8462 35 53.8462C31.1836 53.8462 28.0863 50.8386 28.0863 47.1328Z" fill="#98BBFF"/>
<ellipse cx="35.0037" cy="67.3064" rx="8.07692" ry="8.07692" fill="#98BBFF"/>
</svg>
