<svg width="74" height="74" viewBox="0 0 74 74" fill="none" xmlns="http://www.w3.org/2000/svg">
<circle cx="36.879" cy="37.2196" r="10.7126" stroke="#98BBFF" stroke-width="8.76296"/>
<mask id="path-2-outside-1" maskUnits="userSpaceOnUse" x="0" y="0" width="37" height="37" fill="black">
<rect fill="white" width="37" height="37"/>
<path d="M34.8253 6.34467C34.655 3.99587 32.6038 2.20365 30.293 2.65772C23.532 3.98627 17.2782 7.28641 12.3458 12.1874C7.41337 17.0884 4.07333 23.321 2.70161 30.0734C2.23278 32.3813 4.01186 34.4438 6.35953 34.6292C8.7072 34.8145 10.7266 33.0466 11.2854 30.7589C12.4379 26.0399 14.8722 21.6993 18.3568 18.2369C21.8413 14.7746 26.1974 12.3681 30.9237 11.2457C33.2149 10.7016 34.9956 8.69348 34.8253 6.34467Z"/>
</mask>
<path d="M34.8253 6.34467C34.655 3.99587 32.6038 2.20365 30.293 2.65772C23.532 3.98627 17.2782 7.28641 12.3458 12.1874C7.41337 17.0884 4.07333 23.321 2.70161 30.0734C2.23278 32.3813 4.01186 34.4438 6.35953 34.6292C8.7072 34.8145 10.7266 33.0466 11.2854 30.7589C12.4379 26.0399 14.8722 21.6993 18.3568 18.2369C21.8413 14.7746 26.1974 12.3681 30.9237 11.2457C33.2149 10.7016 34.9956 8.69348 34.8253 6.34467Z" fill="#98BBFF"/>
<path d="M34.8253 6.34467C34.655 3.99587 32.6038 2.20365 30.293 2.65772C23.532 3.98627 17.2782 7.28641 12.3458 12.1874C7.41337 17.0884 4.07333 23.321 2.70161 30.0734C2.23278 32.3813 4.01186 34.4438 6.35953 34.6292C8.7072 34.8145 10.7266 33.0466 11.2854 30.7589C12.4379 26.0399 14.8722 21.6993 18.3568 18.2369C21.8413 14.7746 26.1974 12.3681 30.9237 11.2457C33.2149 10.7016 34.9956 8.69348 34.8253 6.34467Z" stroke="#98BBFF" stroke-width="3.50519" mask="url(#path-2-outside-1)"/>
<mask id="path-3-outside-2" maskUnits="userSpaceOnUse" x="55" y="11" width="19" height="46" fill="black">
<rect fill="white" x="55" y="11" width="19" height="46"/>
<path d="M62.5307 54.3353C64.4796 55.6573 67.1573 55.1583 68.2331 53.0634C71.3806 46.934 72.6665 39.9807 71.8771 33.0724C71.0877 26.1641 68.2663 19.6801 63.8171 14.4188C62.2965 12.6205 59.5752 12.7385 57.9748 14.4661C56.3744 16.1937 56.5102 18.8741 57.9594 20.7305C60.9485 24.5596 62.8464 29.1601 63.4041 34.0406C63.9618 38.921 63.1507 43.8311 61.1024 48.2359C60.1094 50.3713 60.5818 53.0133 62.5307 54.3353Z"/>
</mask>
<path d="M62.5307 54.3353C64.4796 55.6573 67.1573 55.1583 68.2331 53.0634C71.3806 46.934 72.6665 39.9807 71.8771 33.0724C71.0877 26.1641 68.2663 19.6801 63.8171 14.4188C62.2965 12.6205 59.5752 12.7385 57.9748 14.4661C56.3744 16.1937 56.5102 18.8741 57.9594 20.7305C60.9485 24.5596 62.8464 29.1601 63.4041 34.0406C63.9618 38.921 63.1507 43.8311 61.1024 48.2359C60.1094 50.3713 60.5818 53.0133 62.5307 54.3353Z" fill="#98BBFF"/>
<path d="M62.5307 54.3353C64.4796 55.6573 67.1573 55.1583 68.2331 53.0634C71.3806 46.934 72.6665 39.9807 71.8771 33.0724C71.0877 26.1641 68.2663 19.6801 63.8171 14.4188C62.2965 12.6205 59.5752 12.7385 57.9748 14.4661C56.3744 16.1937 56.5102 18.8741 57.9594 20.7305C60.9485 24.5596 62.8464 29.1601 63.4041 34.0406C63.9618 38.921 63.1507 43.8311 61.1024 48.2359C60.1094 50.3713 60.5818 53.0133 62.5307 54.3353Z" stroke="#98BBFF" stroke-width="3.50519" mask="url(#path-3-outside-2)"/>
<mask id="path-4-outside-3" maskUnits="userSpaceOnUse" x="6" y="50" width="45" height="24" fill="black">
<rect fill="white" x="6" y="50" width="45" height="24"/>
<path d="M10.3888 52.4458C8.34937 53.6232 7.63097 56.2506 9.04723 58.1322C13.191 63.6372 18.888 67.8261 25.4493 70.1277C32.0106 72.4293 39.0759 72.7173 45.7506 71.0072C48.0319 70.4228 49.1123 67.9224 48.2554 65.7288C47.3984 63.5353 44.9269 62.4889 42.6245 62.9836C37.8752 64.0042 32.9075 63.7064 28.2722 62.0804C23.6369 60.4544 19.5717 57.5836 16.5007 53.8198C15.0119 51.9951 12.4283 51.2683 10.3888 52.4458Z"/>
</mask>
<path d="M10.3888 52.4458C8.34937 53.6232 7.63097 56.2506 9.04723 58.1322C13.191 63.6372 18.888 67.8261 25.4493 70.1277C32.0106 72.4293 39.0759 72.7173 45.7506 71.0072C48.0319 70.4228 49.1123 67.9224 48.2554 65.7288C47.3984 63.5353 44.9269 62.4889 42.6245 62.9836C37.8752 64.0042 32.9075 63.7064 28.2722 62.0804C23.6369 60.4544 19.5717 57.5836 16.5007 53.8198C15.0119 51.9951 12.4283 51.2683 10.3888 52.4458Z" fill="#98BBFF"/>
<path d="M10.3888 52.4458C8.34937 53.6232 7.63097 56.2506 9.04723 58.1322C13.191 63.6372 18.888 67.8261 25.4493 70.1277C32.0106 72.4293 39.0759 72.7173 45.7506 71.0072C48.0319 70.4228 49.1123 67.9224 48.2554 65.7288C47.3984 63.5353 44.9269 62.4889 42.6245 62.9836C37.8752 64.0042 32.9075 63.7064 28.2722 62.0804C23.6369 60.4544 19.5717 57.5836 16.5007 53.8198C15.0119 51.9951 12.4283 51.2683 10.3888 52.4458Z" stroke="#98BBFF" stroke-width="3.50519" mask="url(#path-4-outside-3)"/>
</svg>
