<svg width="70" height="76" viewBox="0 0 70 76" fill="none" xmlns="http://www.w3.org/2000/svg">
<path fill-rule="evenodd" clip-rule="evenodd" d="M28.0863 28.2505L28.0863 52.4612L11.8031 36.6499C9.09845 34.029 4.72345 34.029 2.02434 36.6499C-0.674778 39.2708 -0.674778 43.519 2.02434 46.1453L30.1106 73.4176C32.8097 76.0385 37.1903 76.0385 39.8894 73.4176L67.9757 46.1453C69.3252 44.8294 70 43.1162 70 41.3976C70 39.6736 69.3252 37.9603 67.9757 36.6499C65.2766 34.029 60.9016 34.029 58.1969 36.6499L41.9137 52.4612L41.9137 28.2505C41.9137 24.5447 38.8164 21.5371 35 21.5371C31.1836 21.5371 28.0863 24.5447 28.0863 28.2505Z" fill="#98BBFF"/>
<ellipse rx="8.07692" ry="8.07692" transform="matrix(1 0 0 -1 35.0037 8.07688)" fill="#98BBFF"/>
</svg>
