<svg width="67" height="84" viewBox="0 0 67 84" fill="none" xmlns="http://www.w3.org/2000/svg">
<path d="M12.7952 57.9584L3.69966 57.2588L3 78.2486H12.0956L12.7952 57.9584Z" stroke="#FA9674" stroke-width="5" stroke-linecap="round" stroke-linejoin="round"/>
<path d="M12.7952 57.9584L3.69966 57.2588L3 78.2486H12.0956L12.7952 57.9584Z" stroke="#98BBFF" stroke-width="5" stroke-linecap="round" stroke-linejoin="round"/>
<path d="M47.0806 67.0543C50.5789 64.9554 56.4748 61.1685 59 61.1685C61.5252 61.1685 63.4778 65.1735 64.1775 65.8732C56.9477 70.7708 41.5085 80.5661 37.5905 80.5661C32.6928 80.5661 20.7986 75.6685 18 75.6685C15.7611 75.6685 12.7973 75.4504 12.0977 76.1501L12.7973 60.7576" stroke="#FA9674" stroke-width="5" stroke-linecap="round" stroke-linejoin="round"/>
<path d="M47.0806 67.0543C50.5789 64.9554 56.4748 61.1685 59 61.1685C61.5252 61.1685 63.4778 65.1735 64.1775 65.8732C56.9477 70.7708 41.5085 80.5661 37.5905 80.5661C32.6928 80.5661 20.7986 75.6685 18 75.6685C15.7611 75.6685 12.7973 75.4504 12.0977 76.1501L12.7973 60.7576" stroke="#98BBFF" stroke-width="5" stroke-linecap="round" stroke-linejoin="round"/>
<path d="M12.7949 60.7566C16.2932 59.3573 19.0919 57.2583 25.3888 60.057C31.6857 62.8556 40.0816 61.4563 42.1806 62.156C44.2796 62.8556 47.0782 66.3539 47.0782 68.4529C43.7198 68.4529 36.3501 68.4529 33.085 68.4529" stroke="#FA9674" stroke-width="5" stroke-linecap="round" stroke-linejoin="round"/>
<path d="M12.7949 60.7566C16.2932 59.3573 19.0919 57.2583 25.3888 60.057C31.6857 62.8556 40.0816 61.4563 42.1806 62.156C44.2796 62.8556 47.0782 66.3539 47.0782 68.4529C43.7198 68.4529 36.3501 68.4529 33.085 68.4529" stroke="#98BBFF" stroke-width="5" stroke-linecap="round" stroke-linejoin="round"/>
<path d="M33.8166 21.4221C41.8941 21.4221 48.4418 27.9698 48.4418 36.0473C48.4418 44.1248 41.8941 50.6725 33.8166 50.6725C25.7391 50.6725 19.1914 44.1248 19.1914 36.0473C19.2005 27.9738 25.7431 21.4313 33.8166 21.4221Z" stroke="#FA9674" stroke-width="5" stroke-linecap="round"/>
<path d="M33.8166 21.4221C41.8941 21.4221 48.4418 27.9698 48.4418 36.0473C48.4418 44.1248 41.8941 50.6725 33.8166 50.6725C25.7391 50.6725 19.1914 44.1248 19.1914 36.0473C19.2005 27.9738 25.7431 21.4313 33.8166 21.4221Z" stroke="#98BBFF" stroke-width="5" stroke-linecap="round"/>
<path d="M33.8166 12.1685C41.8941 12.1685 48.4418 18.7161 48.4418 26.7937C48.4418 34.8712 41.8941 41.4188 33.8166 41.4188C25.7391 41.4188 19.1914 34.8712 19.1914 26.7937C19.2005 18.7201 25.7431 12.1776 33.8166 12.1685Z" stroke="#FA9674" stroke-width="5" stroke-linecap="round"/>
<path d="M33.8166 12.1685C41.8941 12.1685 48.4418 18.7161 48.4418 26.7937C48.4418 34.8712 41.8941 41.4188 33.8166 41.4188C25.7391 41.4188 19.1914 34.8712 19.1914 26.7937C19.2005 18.7201 25.7431 12.1776 33.8166 12.1685Z" stroke="#98BBFF" stroke-width="5" stroke-linecap="round"/>
<path d="M33.8166 3.16846C41.8941 3.16846 48.4418 9.71615 48.4418 17.7937C48.4418 25.8712 41.8941 32.4188 33.8166 32.4188C25.7391 32.4188 19.1914 25.8712 19.1914 17.7937C19.2005 9.72015 25.7431 3.1776 33.8166 3.16846Z" stroke="#FA9674" stroke-width="5" stroke-linecap="round"/>
<path d="M33.8166 3.16846C41.8941 3.16846 48.4418 9.71615 48.4418 17.7937C48.4418 25.8712 41.8941 32.4188 33.8166 32.4188C25.7391 32.4188 19.1914 25.8712 19.1914 17.7937C19.2005 9.72015 25.7431 3.1776 33.8166 3.16846Z" stroke="#98BBFF" stroke-width="5" stroke-linecap="round"/>
</svg>
