<svg width="66" height="57" viewBox="0 0 66 57" fill="none" xmlns="http://www.w3.org/2000/svg">
<path d="M51.3333 12.9078V53.1933C51.3333 55.2309 49.6917 56.8827 47.6667 56.8827C45.6416 56.8827 44 55.2309 44 53.1933V12.9078L35.5927 21.3673C34.1608 22.8081 31.8392 22.8081 30.4073 21.3673C28.9754 19.9265 28.9754 17.5905 30.4073 16.1497L45.0739 1.39189C46.5059 -0.0489247 48.8275 -0.0489247 50.2594 1.39189L64.9261 16.1497C66.358 17.5905 66.358 19.9265 64.9261 21.3673C63.4941 22.8081 61.1725 22.8081 59.7406 21.3673L51.3333 12.9078ZM14.6667 44.2862V4.00072C14.6667 1.9631 16.3083 0.31128 18.3333 0.31128C20.3584 0.31128 22 1.9631 22 4.00072V44.2862L30.4073 35.8267C31.8392 34.3859 34.1608 34.3859 35.5927 35.8267C37.0246 37.2675 37.0246 39.6035 35.5927 41.0443L20.9261 55.8021C19.4941 57.2429 17.1725 57.2429 15.7406 55.8021L1.07394 41.0443C-0.35798 39.6035 -0.35798 37.2675 1.07394 35.8267C2.50586 34.3859 4.82747 34.3859 6.25939 35.8267L14.6667 44.2862Z" fill="#98BBFF"/>
</svg>
