<svg width="14" height="14" viewBox="0 0 14 14" fill="none" xmlns="http://www.w3.org/2000/svg">
    <path
        fillRule="evenodd"
        clipRule="evenodd"
        d="M10.865 9.61897L13.371 12.125C13.762 12.515 13.762 13.148 13.371 13.539C13.176 13.734 12.92 13.832 12.664 13.832C12.408 13.832 12.152 13.734 11.957 13.539L9.451 11.033C8.472 11.73 7.278 12.144 5.988 12.144C2.687 12.144 0 9.45797 0 6.15597C0 2.85397 2.687 0.167969 5.988 0.167969C9.29 0.167969 11.977 2.85397 11.977 6.15597C11.977 7.44597 11.562 8.63897 10.865 9.61897ZM5.988 2.16797C3.789 2.16797 2 3.95697 2 6.15597C2 8.35497 3.789 10.144 5.988 10.144C8.187 10.144 9.977 8.35497 9.977 6.15597C9.977 3.95697 8.187 2.16797 5.988 2.16797Z"
        fill="#2E2E2E"
    />
</svg>