<svg width="34" height="27" viewBox="0 0 34 27" fill="none" xmlns="http://www.w3.org/2000/svg">
<path d="M33.2903 3.19521C32.086 3.72351 30.8027 4.07368 29.4647 4.24371C30.8411 3.42191 31.8916 2.13052 32.3855 0.573965C31.1022 1.33908 29.6853 1.87953 28.1754 2.18112C26.9568 0.883657 25.2201 0.0800781 23.3255 0.0800781C19.6497 0.0800781 16.6905 3.06364 16.6905 6.72124C16.6905 7.24751 16.735 7.75354 16.8443 8.23528C11.3245 7.96607 6.44028 5.32054 3.15917 1.29051C2.58635 2.28435 2.25034 3.42191 2.25034 4.64651C2.25034 6.94591 3.43445 8.98421 5.19949 10.1643C4.13278 10.144 3.0863 9.83434 2.19974 9.34653C2.19974 9.36677 2.19974 9.39308 2.19974 9.4194C2.19974 12.6459 4.50117 15.3258 7.51914 15.9432C6.9787 16.0909 6.38968 16.1618 5.77839 16.1618C5.35333 16.1618 4.92421 16.1375 4.52141 16.0484C5.38166 18.6777 7.82276 20.6108 10.7254 20.6735C8.46643 22.4406 5.59825 23.5053 2.49324 23.5053C1.94875 23.5053 1.42652 23.481 0.904297 23.4142C3.84535 25.3108 7.3309 26.3937 11.0897 26.3937C23.3073 26.3937 29.9869 16.2731 29.9869 7.50052C29.9869 7.20703 29.9768 6.92365 29.9627 6.6423C31.2804 5.70715 32.3876 4.53923 33.2903 3.19521Z" fill="#1DA1F2"/>
</svg>
