<svg width="15" height="16" viewBox="0 0 15 16" fill="none" xmlns="http://www.w3.org/2000/svg">
<circle cx="7.43529" cy="7.8706" r="7.43529" fill="#C4C4C4"/>
<path d="M8.10113 6.67632L7.93287 8.91171H6.92334L6.75508 6.67632V3.5035H8.10113V6.67632ZM7.4281 9.84914C7.70052 9.84914 7.91685 9.92926 8.07709 10.0895C8.24535 10.2417 8.32947 10.446 8.32947 10.7024C8.32947 10.9588 8.24935 11.1631 8.08911 11.3154C7.92887 11.4676 7.70853 11.5437 7.4281 11.5437C7.15569 11.5437 6.93936 11.4676 6.77912 11.3154C6.61888 11.1631 6.53875 10.9588 6.53875 10.7024C6.53875 10.446 6.61888 10.2417 6.77912 10.0895C6.93936 9.92926 7.15569 9.84914 7.4281 9.84914Z" fill="white"/>
</svg>
