<svg width="10" height="9" viewBox="0 0 10 9" fill="none" xmlns="http://www.w3.org/2000/svg">
<path id="Vector" d="M8.12234 1.37251V0.117432H1.87758V1.37251H0V2.61738C0 3.65812 0.836695 4.49497 1.87758 4.49497C2.07149 4.49497 2.26535 4.46435 2.43884 4.41332C2.88785 5.05616 3.58165 5.52558 4.37757 5.68879V7.62752H3.75515C3.06135 7.62752 2.50007 8.18878 2.50007 8.8826H7.50009C7.50009 8.1888 6.93882 7.62752 6.24501 7.62752H5.62258V5.68879C6.41852 5.52549 7.1124 5.05616 7.56131 4.41332C7.73474 4.46435 7.92866 4.49497 8.12257 4.49497C9.16331 4.49497 10 3.6582 10 2.61738V1.37251H8.12234ZM1.87758 3.74996C1.25516 3.74996 0.744909 3.23972 0.744909 2.61729V1.99486H1.87758V2.61729C1.87758 3.00506 1.94903 3.38261 2.08162 3.72955C2.01025 3.74996 1.94894 3.74996 1.87758 3.74996ZM9.25505 2.61729C9.25505 3.23972 8.74481 3.74996 8.12238 3.74996C8.05094 3.74996 7.97949 3.73976 7.91834 3.72955C8.05102 3.38261 8.12238 3.00506 8.12238 2.61729V1.99487H9.25505V2.61729Z" fill="#98BBFF"/>
</svg>
