<svg width="8" height="8" viewBox="0 0 8 8" fill="none" xmlns="http://www.w3.org/2000/svg">
<path d="M3.61133 3.61133V2.3C3.61133 2.13431 3.74564 2 3.91133 2H4.11699C4.28268 2 4.41699 2.13431 4.41699 2.3V3.61133H5.72832C5.89401 3.61133 6.02832 3.74564 6.02832 3.91133V4.11699C6.02832 4.28268 5.89401 4.41699 5.72832 4.41699H4.41699V5.72832C4.41699 5.89401 4.28268 6.02832 4.11699 6.02832H3.91133C3.74564 6.02832 3.61133 5.89401 3.61133 5.72832V4.41699H2.3C2.13431 4.41699 2 4.28268 2 4.11699V3.91133C2 3.74564 2.13431 3.61133 2.3 3.61133H3.61133Z" fill="#98BBFF"/>
<circle cx="4" cy="4" r="3.6" stroke="#98BBFF" stroke-width="0.8"/>
</svg>
