<svg width="9" height="9" viewBox="0 0 9 9" fill="none" xmlns="http://www.w3.org/2000/svg">
<path fill-rule="evenodd" clip-rule="evenodd" d="M3.35316 5.62708L3.35316 2.73662L1.40915 4.6243C1.08624 4.9372 0.563922 4.9372 0.241681 4.6243C-0.0805603 4.31139 -0.0805603 3.80421 0.241681 3.49066L3.59484 0.234677C3.91708 -0.0782258 4.44006 -0.0782258 4.7623 0.234677L8.11546 3.49066C8.27658 3.64776 8.35714 3.8523 8.35714 4.05748C8.35714 4.2633 8.27658 4.46785 8.11546 4.6243C7.79322 4.9372 7.2709 4.9372 6.948 4.6243L5.00398 2.73662L5.00398 5.62708C5.00398 6.0695 4.6342 6.42857 4.17857 6.42857C3.72294 6.42857 3.35316 6.0695 3.35316 5.62708Z" fill="#98BBFF"/>
<circle cx="4.17864" cy="8.0357" r="0.964286" fill="#98BBFF"/>
</svg>
