<svg width="44" height="39" viewBox="0 0 44 39" fill="none" xmlns="http://www.w3.org/2000/svg">
<path fill-rule="evenodd" clip-rule="evenodd" d="M23.7107 0.989088L24.9017 3.06564L0.00179304 35.8366C-0.0140052 35.4266 0.0740817 35.003 0.286369 34.6011L19.6189 1.20246C20.5287 -0.326225 22.685 -0.397349 23.7107 0.989088Z" fill="#98BBFF"/>
<path fill-rule="evenodd" clip-rule="evenodd" d="M27.0931 6.80011L0.0439453 36.2046C0.0694706 36.337 0.105766 36.4666 0.152088 36.5924L30.0096 11.8381L27.0931 6.80011Z" fill="#98BBFF"/>
<path fill-rule="evenodd" clip-rule="evenodd" d="M32.2697 15.7422L0.26416 36.8507C0.316122 36.9542 0.375208 37.054 0.440937 37.1494L35.1293 20.6819L32.2697 15.7422Z" fill="#98BBFF"/>
<path fill-rule="evenodd" clip-rule="evenodd" d="M0.905155 37.656L40.2444 29.53L37.2408 24.3345L0.603027 37.3596C0.694781 37.4664 0.795778 37.5658 0.905155 37.656Z" fill="#98BBFF"/>
<path fill-rule="evenodd" clip-rule="evenodd" d="M43.2273 34.6851L42.3552 33.1831L1.21289 37.8725C1.5734 38.0863 1.99889 38.2118 2.46788 38.2118H41.0031C42.8356 38.2118 44.0039 36.2958 43.2273 34.6851Z" fill="#98BBFF"/>
</svg>
