<svg width="80" height="80" viewBox="0 0 80 80" fill="none" xmlns="http://www.w3.org/2000/svg">
<path d="M15.2513 64.7487C9.5602 59.0577 6.00441 51.5791 5.18283 43.5728C4.36126 35.5665 6.3241 27.5216 10.7407 20.7933C15.1574 14.0651 21.7579 9.06454 29.4305 6.63405C37.1032 4.20357 45.379 4.49165 52.864 7.44978C60.3491 10.4079 66.5859 15.8553 70.524 22.8744C74.4621 29.8935 75.8608 38.0554 74.4845 45.9852C73.1081 53.915 69.0409 61.1282 62.9679 66.4098C56.8949 71.6913 49.1872 74.7185 41.1431 74.9813" stroke="#98BBFF" stroke-width="10" stroke-linecap="round"/>
<path d="M18.1589 65.5741C16.9506 66.9888 14.8116 67.1663 13.5125 65.8344C8.19805 60.3858 4.6728 53.4072 3.46338 45.8374C2.07613 37.1546 3.82648 28.2615 8.40074 20.752C12.975 13.2425 20.0741 7.60747 28.4258 4.85689C36.7775 2.10631 45.8358 2.41995 53.9772 5.74162C62.1187 9.06328 68.811 15.1758 72.8549 22.9837C76.8988 30.7916 78.0299 39.7845 76.0454 48.3506C74.0609 56.9167 69.0905 64.4961 62.0252 69.7303C55.8655 74.2936 48.4646 76.8144 40.8554 76.9902C38.9954 77.0331 37.591 75.41 37.7173 73.5538C37.8435 71.6977 39.4539 70.315 41.3126 70.2343C47.3201 69.9736 53.1422 67.9265 58.0147 64.3168C63.7935 60.0356 67.8588 53.8364 69.4819 46.8301C71.1051 39.8237 70.18 32.4684 66.8724 26.0822C63.5649 19.696 58.0911 14.6965 51.4322 11.9796C44.7732 9.26282 37.3643 9.00628 30.5333 11.256C23.7024 13.5058 17.8959 18.1147 14.1546 24.2568C10.4132 30.3989 8.9816 37.6727 10.1163 44.7745C11.0729 50.7625 13.8013 56.2981 17.9118 60.6869C19.1836 62.0448 19.3671 64.1594 18.1589 65.5741Z" fill="#98BBFF"/>
<path d="M55.7514 23.4888C53.7622 21.5031 50.5409 21.5031 48.5517 23.4888L46.7495 25.3009L27.5651 44.4751L27.5243 44.5162C27.5145 44.5261 27.5145 44.5366 27.504 44.5366C27.4836 44.5671 27.453 44.5974 27.4329 44.628C27.4329 44.6382 27.4224 44.6382 27.4224 44.6484C27.402 44.6789 27.3922 44.6993 27.3715 44.7299C27.3616 44.7401 27.3616 44.75 27.3514 44.7605C27.3412 44.7911 27.331 44.8115 27.3205 44.842C27.3205 44.8519 27.3106 44.8519 27.3106 44.8624L23.0542 57.662C22.9293 58.0264 23.0242 58.43 23.2985 58.7004C23.4912 58.8906 23.7511 58.9969 24.0215 58.996C24.1321 58.9941 24.2416 58.9769 24.3474 58.945L37.1371 54.6784C37.147 54.6784 37.147 54.6784 37.1575 54.6685C37.1897 54.659 37.2206 54.6453 37.2489 54.6274C37.2569 54.6265 37.2639 54.623 37.2696 54.6175C37.2999 54.5972 37.3406 54.5765 37.3712 54.5561C37.4015 54.536 37.4324 54.5054 37.4629 54.485C37.4731 54.4745 37.483 54.4745 37.483 54.4647C37.4935 54.4545 37.5139 54.4446 37.5241 54.4239L58.5107 33.4373C60.4964 31.4481 60.4964 28.2268 58.5107 26.238L55.7514 23.4888ZM28.7258 47.0822L34.9173 53.2734L25.6202 56.3688L28.7258 47.0822ZM57.0751 32.0115L55.9957 33.1012L48.9082 26.0137L49.9982 24.9244C51.1904 23.7331 53.1229 23.7331 54.3155 24.9244L57.085 27.6939C58.2683 28.8916 58.2639 30.8196 57.0751 32.0115Z" fill="#98BBFF"/>
</svg>
