<svg width="8" height="8" viewBox="0 0 8 8" fill="none" xmlns="http://www.w3.org/2000/svg">
<path fill-rule="evenodd" clip-rule="evenodd" d="M1.69388 6.36232L2.74652 6.17795L1.8219 5.25334L1.64332 6.27382C1.66387 6.30151 1.68079 6.33128 1.69388 6.36232ZM1.3999 6.88953C1.41903 6.88781 1.43808 6.88447 1.45683 6.87956L3.27149 6.56189C3.31896 6.55358 3.36271 6.53084 3.39679 6.49677L6.44238 3.45116C6.53392 3.35962 6.53392 3.21123 6.44238 3.1197L4.8801 1.55742C4.78859 1.46589 4.64018 1.46589 4.54865 1.55742L1.50304 4.60303C1.46895 4.63711 1.44621 4.68088 1.4379 4.72834L1.25409 5.77865C1.00818 5.39901 0.841776 4.96958 0.769333 4.51616C0.646669 3.7484 0.80144 2.96204 1.20591 2.29803C1.61038 1.63402 2.2381 1.13576 2.97659 0.892543C3.71507 0.649328 4.51603 0.677062 5.23592 0.970773C5.95581 1.26448 6.54757 1.80497 6.90514 2.49537C7.26271 3.18577 7.36272 3.98094 7.18725 4.73838C7.01177 5.49582 6.57228 6.16601 5.94754 6.62884C5.42078 7.01908 4.79137 7.24039 4.14191 7.26858C3.94097 7.2773 3.76688 7.42677 3.75323 7.62744C3.73958 7.8281 3.89141 8.00358 4.09248 7.99894C4.9151 7.97993 5.7152 7.70741 6.38111 7.21409C6.53179 7.10246 6.67365 6.98097 6.80596 6.85074C6.81345 6.84337 6.82095 6.83593 6.82845 6.82844C7.5738 6.08307 7.98879 5.09533 7.99978 4.04295C8.00008 4.01578 8.00009 3.98861 7.99983 3.96146C7.98995 2.90742 7.57484 1.91797 6.82845 1.17156C6.07295 0.416078 5.06845 0 4.00001 0C3.9954 0 3.9908 7.70605e-06 3.98619 2.3173e-05C2.92291 0.0035946 1.92381 0.419336 1.17157 1.17156C0.428037 1.91511 0.0132562 2.89985 0.000320924 3.94935C-0.000108067 3.98321 -0.000107236 4.01709 0.000325005 4.05099C0.0133462 5.10037 0.428118 6.08497 1.17159 6.82844C1.2276 6.88445 1.30492 6.90602 1.37746 6.89345L1.3999 6.88953ZM2.78146 5.55L3.23104 5.99958L5.94518 3.28544L5.4956 2.83586L2.78146 5.55ZM5.16417 2.50441L4.71437 2.05461L2.00023 4.76875L2.45001 5.21855L5.16417 2.50441Z" fill="#98BBFF"/>
</svg>
