<svg width="80" height="80" viewBox="0 0 80 80" fill="none" xmlns="http://www.w3.org/2000/svg">
<circle cx="40" cy="40" r="35" stroke="#98BBFF" stroke-width="10"/>
<path d="M57.3947 35.133C57.1387 34.3459 56.4579 33.7725 55.6391 33.6536L46.1801 32.2816L41.9477 23.7116C41.5811 22.9697 40.8255 22.5001 39.9982 22.5001C39.1704 22.5003 38.4144 22.9704 38.0482 23.7127L33.8207 32.2848L24.3623 33.6618C23.5432 33.781 22.8631 34.355 22.6076 35.1421C22.3521 35.9292 22.5656 36.7933 23.1584 37.3708L30.0045 44.0406L28.3913 53.4614C28.2515 54.2772 28.5873 55.1015 29.257 55.5879C29.6357 55.8629 30.0841 56.0027 30.5346 56.0027C30.8807 56.0027 31.2284 55.9201 31.5468 55.7527L40.0056 51.3027L48.4668 55.7481C49.1993 56.1332 50.0871 56.0688 50.7566 55.582C51.4261 55.0954 51.7612 54.2709 51.6211 53.4553L50.003 44.0354L56.8456 37.3621C57.4377 36.7842 57.6506 35.9201 57.3947 35.133Z" fill="#98BBFF"/>
</svg>
