<svg width="10" height="13" viewBox="0 0 10 13" fill="none" xmlns="http://www.w3.org/2000/svg">
<g id="Group 2815">
<g id="Group 2434">
<g id="Group 2682">
<path id="Vector" d="M3.96993 1.57665C4.07935 1.57665 4.18422 1.62015 4.26153 1.69748C4.33886 1.77481 4.38228 1.87967 4.38228 1.98902C4.38228 2.11497 4.44947 2.23131 4.5585 2.29424C4.66753 2.35718 4.80189 2.35718 4.91092 2.29424C5.01995 2.23131 5.08713 2.11497 5.08713 1.98902C5.08713 1.58988 4.87419 1.22108 4.52853 1.02151C4.18287 0.821932 3.75704 0.821932 3.41139 1.02151C3.06573 1.22109 2.85278 1.58988 2.85278 1.98902V7.73354C2.85278 7.85949 2.91996 7.97583 3.029 8.03876C3.13803 8.1017 3.27239 8.1017 3.38142 8.03876C3.49045 7.97583 3.55763 7.85948 3.55763 7.73354V7.28248H6.68716V7.73354C6.68716 7.85949 6.75434 7.97583 6.86337 8.03876C6.97241 8.1017 7.10677 8.1017 7.2158 8.03876C7.32483 7.97583 7.39201 7.85948 7.39201 7.73354V1.98902C7.39201 1.84168 7.4706 1.7056 7.59819 1.63197C7.72578 1.55826 7.88297 1.55826 8.01056 1.63197C8.13808 1.7056 8.21666 1.84169 8.21666 1.98902C8.21666 2.11497 8.28384 2.23131 8.39288 2.29424C8.50199 2.35718 8.63627 2.35718 8.7453 2.29424C8.85441 2.23131 8.92151 2.11497 8.92151 1.98902C8.92151 1.58988 8.70865 1.22108 8.36299 1.02151C8.01733 0.821932 7.59144 0.821932 7.24576 1.02151C6.90011 1.22109 6.68716 1.58988 6.68716 1.98902V3.15203H3.55763V1.98902C3.55763 1.87968 3.60105 1.77481 3.67838 1.69748C3.75571 1.62015 3.86057 1.57665 3.96993 1.57665ZM6.68722 6.57765H3.55769V5.64018H6.68722V6.57765ZM6.68722 3.85875V4.93537H3.55769V3.85694L6.68722 3.85875Z" fill="#98BBFF"/>
<path id="Vector_2" d="M1.90298 9.37042C1.65629 9.37042 1.55056 9.26643 1.37435 9.09557V9.09549C1.11766 8.7994 0.745964 8.62798 0.354129 8.625C0.228184 8.625 0.111842 8.69218 0.0489087 8.80121C-0.0140243 8.91032 -0.0140243 9.0446 0.0489087 9.15363C0.111842 9.26274 0.228188 9.32985 0.354129 9.32985C0.600826 9.32985 0.706553 9.43203 0.882765 9.60297C1.13921 9.89961 1.51091 10.0716 1.90298 10.0753C2.29498 10.0709 2.66636 9.89906 2.92328 9.60297C3.09949 9.42675 3.20877 9.32985 3.45192 9.32985C3.69507 9.32985 3.80434 9.43203 3.98056 9.60297C4.23464 9.90285 4.60777 10.0757 5.00078 10.0757C5.3938 10.0757 5.76699 9.90285 6.02107 9.60297C6.19729 9.42675 6.30656 9.32985 6.54971 9.32985C6.79286 9.32985 6.90214 9.43203 7.07835 9.6047V9.60478C7.33314 9.90347 7.70603 10.0755 8.09865 10.0755C8.49119 10.0755 8.86407 9.90347 9.11887 9.60478C9.29508 9.42856 9.40608 9.32993 9.6475 9.32993V9.32985C9.77345 9.32985 9.88979 9.26274 9.95272 9.15363C10.0157 9.0446 10.0157 8.91032 9.95272 8.80121C9.88979 8.69218 9.77344 8.625 9.6475 8.625C9.25567 8.62799 8.88397 8.7994 8.62728 9.09549C8.45107 9.27171 8.34007 9.37035 8.09865 9.37035C7.85723 9.37035 7.74622 9.26635 7.57001 9.09549C7.31522 8.7968 6.94233 8.62476 6.54971 8.62476C6.15709 8.62476 5.7842 8.7968 5.52941 9.09549C5.3532 9.27171 5.24393 9.37035 5.00078 9.37035C4.75762 9.37035 4.64835 9.26635 4.47214 9.09549C4.21773 8.79688 3.84508 8.62484 3.45279 8.62484C3.06049 8.62484 2.68784 8.79688 2.43343 9.09549C2.25541 9.26644 2.14795 9.37042 1.90298 9.37042Z" fill="#98BBFF"/>
<path id="Vector_3" d="M0.350688 11.3844C0.597385 11.3844 0.703112 11.4866 0.879324 11.6575C1.13412 11.9562 1.507 12.1282 1.89954 12.1282C2.29216 12.1282 2.66505 11.9562 2.91984 11.6575C3.09605 11.4813 3.20533 11.3844 3.44848 11.3844C3.69163 11.3844 3.8009 11.4866 3.97712 11.6575C4.23191 11.9562 4.60479 12.1282 4.99741 12.1282C5.38995 12.1282 5.76284 11.9562 6.01763 11.6575C6.19385 11.4813 6.30312 11.3844 6.54627 11.3844C6.78942 11.3844 6.89869 11.4866 7.07491 11.6575C7.3297 11.9562 7.70258 12.1282 8.09521 12.1282C8.48783 12.1282 8.86071 11.9562 9.11542 11.6575C9.29164 11.4813 9.40264 11.3844 9.64406 11.3844C9.77 11.3844 9.88635 11.3172 9.94928 11.2082C10.0122 11.0991 10.0122 10.9648 9.94928 10.8557C9.88635 10.7467 9.77 10.6795 9.64406 10.6795C9.25222 10.6824 8.88053 10.8538 8.62384 11.15C8.44763 11.3262 8.33663 11.4231 8.09521 11.4231C7.85378 11.4231 7.74278 11.321 7.56657 11.15C7.31178 10.8512 6.93889 10.6792 6.54627 10.6792C6.15365 10.6792 5.78076 10.8512 5.52605 11.15C5.34984 11.3262 5.24057 11.4231 4.99741 11.4231C4.75426 11.4231 4.64499 11.321 4.46878 11.15C4.21429 10.8513 3.84172 10.6793 3.44934 10.6793C3.05705 10.6793 2.6844 10.8513 2.42999 11.15C2.25378 11.3262 2.14278 11.4231 1.90136 11.4231C1.65993 11.4231 1.54893 11.321 1.37272 11.15C1.11603 10.8538 0.744336 10.6824 0.352419 10.6795C0.226554 10.6795 0.110213 10.7467 0.0471997 10.8557C-0.0157332 10.9648 -0.0157332 11.0991 0.0471997 11.2082C0.110211 11.3172 0.226558 11.3844 0.352419 11.3844H0.350688Z" fill="#98BBFF"/>
</g>
</g>
</g>
</svg>
