<svg width="10" height="11" viewBox="0 0 10 11" fill="none" xmlns="http://www.w3.org/2000/svg">
<g id="Group 2434">
<path id="Vector" d="M0.953564 7.55372C1.00243 7.60259 1.06357 7.60259 1.11252 7.56592C1.62596 7.17467 2.35949 7.23582 2.81179 7.6882C3.26409 8.14051 3.31303 8.87403 2.93407 9.38748C2.8974 9.43634 2.8974 9.50976 2.94627 9.54643L3.77752 10.39C3.9242 10.5366 4.15648 10.5366 4.29097 10.39L8.34967 6.33128L7.42053 5.37773L7.76283 5.03543L8.70417 5.97677L9.88999 4.79095C10.0367 4.64428 10.0367 4.412 9.88999 4.2775L6.2225 0.610005C6.07582 0.463332 5.84355 0.463332 5.70905 0.610005L4.52323 1.79583L5.46457 2.73717L5.12227 3.07947L4.18093 2.13813L0.110005 6.20905C-0.0366684 6.35572 -0.0366684 6.588 0.110005 6.7225L0.953564 7.55372ZM6.11251 3.385L7.12718 4.39968L6.78488 4.74198L5.77021 3.7273L6.11251 3.385Z" fill="#98BBFF"/>
</g>
</svg>
