<svg width="10" height="10" viewBox="0 0 10 10" fill="none" xmlns="http://www.w3.org/2000/svg">
<circle cx="4.98091" cy="5.01912" r="1.22249" stroke="#98BBFF"/>
<mask id="path-2-outside-1" maskUnits="userSpaceOnUse" x="0" y="0" width="5" height="5" fill="black">
<rect fill="white" width="5" height="5"/>
<path d="M4.74592 1.4958C4.72648 1.22776 4.49241 1.02324 4.22871 1.07506C3.45716 1.22667 2.74349 1.60327 2.18062 2.16255C1.61776 2.72183 1.2366 3.43308 1.08007 4.20364C1.02656 4.46701 1.22959 4.70238 1.49749 4.72353C1.7654 4.74468 1.99586 4.54294 2.05962 4.28187C2.19114 3.74335 2.46893 3.24801 2.86658 2.8529C3.26422 2.45779 3.76133 2.18317 4.30067 2.05509C4.56214 1.993 4.76535 1.76384 4.74592 1.4958Z"/>
</mask>
<path d="M4.74592 1.4958C4.72648 1.22776 4.49241 1.02324 4.22871 1.07506C3.45716 1.22667 2.74349 1.60327 2.18062 2.16255C1.61776 2.72183 1.2366 3.43308 1.08007 4.20364C1.02656 4.46701 1.22959 4.70238 1.49749 4.72353C1.7654 4.74468 1.99586 4.54294 2.05962 4.28187C2.19114 3.74335 2.46893 3.24801 2.86658 2.8529C3.26422 2.45779 3.76133 2.18317 4.30067 2.05509C4.56214 1.993 4.76535 1.76384 4.74592 1.4958Z" fill="#98BBFF"/>
<path d="M4.74592 1.4958C4.72648 1.22776 4.49241 1.02324 4.22871 1.07506C3.45716 1.22667 2.74349 1.60327 2.18062 2.16255C1.61776 2.72183 1.2366 3.43308 1.08007 4.20364C1.02656 4.46701 1.22959 4.70238 1.49749 4.72353C1.7654 4.74468 1.99586 4.54294 2.05962 4.28187C2.19114 3.74335 2.46893 3.24801 2.86658 2.8529C3.26422 2.45779 3.76133 2.18317 4.30067 2.05509C4.56214 1.993 4.76535 1.76384 4.74592 1.4958Z" stroke="#98BBFF" stroke-width="0.4" mask="url(#path-2-outside-1)"/>
<mask id="path-3-outside-2" maskUnits="userSpaceOnUse" x="7" y="2" width="3" height="6" fill="black">
<rect fill="white" x="7" y="2" width="3" height="6"/>
<path d="M7.90756 6.97233C8.12996 7.1232 8.43553 7.06625 8.5583 6.82718C8.91748 6.12772 9.06422 5.33423 8.97414 4.54588C8.88405 3.75752 8.56209 3.0176 8.05437 2.41719C7.88084 2.21198 7.57029 2.22544 7.38766 2.42259C7.20503 2.61973 7.22053 2.92562 7.38589 3.13746C7.72701 3.57442 7.94359 4.09942 8.00723 4.65636C8.07087 5.2133 7.97831 5.77363 7.74457 6.27629C7.63125 6.51997 7.68516 6.82147 7.90756 6.97233Z"/>
</mask>
<path d="M7.90756 6.97233C8.12996 7.1232 8.43553 7.06625 8.5583 6.82718C8.91748 6.12772 9.06422 5.33423 8.97414 4.54588C8.88405 3.75752 8.56209 3.0176 8.05437 2.41719C7.88084 2.21198 7.57029 2.22544 7.38766 2.42259C7.20503 2.61973 7.22053 2.92562 7.38589 3.13746C7.72701 3.57442 7.94359 4.09942 8.00723 4.65636C8.07087 5.2133 7.97831 5.77363 7.74457 6.27629C7.63125 6.51997 7.68516 6.82147 7.90756 6.97233Z" fill="#98BBFF"/>
<path d="M7.90756 6.97233C8.12996 7.1232 8.43553 7.06625 8.5583 6.82718C8.91748 6.12772 9.06422 5.33423 8.97414 4.54588C8.88405 3.75752 8.56209 3.0176 8.05437 2.41719C7.88084 2.21198 7.57029 2.22544 7.38766 2.42259C7.20503 2.61973 7.22053 2.92562 7.38589 3.13746C7.72701 3.57442 7.94359 4.09942 8.00723 4.65636C8.07087 5.2133 7.97831 5.77363 7.74457 6.27629C7.63125 6.51997 7.68516 6.82147 7.90756 6.97233Z" stroke="#98BBFF" stroke-width="0.4" mask="url(#path-3-outside-2)"/>
<mask id="path-4-outside-3" maskUnits="userSpaceOnUse" x="1" y="6" width="6" height="4" fill="black">
<rect fill="white" x="1" y="6" width="6" height="4"/>
<path d="M1.95731 6.7567C1.72457 6.89107 1.64259 7.1909 1.80421 7.40561C2.27708 8.03383 2.9272 8.51185 3.67595 8.77451C4.4247 9.03716 5.23097 9.07002 5.99268 8.87488C6.25301 8.80818 6.3763 8.52284 6.27851 8.27252C6.18071 8.02221 5.89867 7.90279 5.63593 7.95925C5.09396 8.07572 4.52706 8.04172 3.99809 7.85617C3.46913 7.67061 3.00522 7.34301 2.65477 6.9135C2.48488 6.70527 2.19004 6.62233 1.95731 6.7567Z"/>
</mask>
<path d="M1.95731 6.7567C1.72457 6.89107 1.64259 7.1909 1.80421 7.40561C2.27708 8.03383 2.9272 8.51185 3.67595 8.77451C4.4247 9.03716 5.23097 9.07002 5.99268 8.87488C6.25301 8.80818 6.3763 8.52284 6.27851 8.27252C6.18071 8.02221 5.89867 7.90279 5.63593 7.95925C5.09396 8.07572 4.52706 8.04172 3.99809 7.85617C3.46913 7.67061 3.00522 7.34301 2.65477 6.9135C2.48488 6.70527 2.19004 6.62233 1.95731 6.7567Z" fill="#98BBFF"/>
<path d="M1.95731 6.7567C1.72457 6.89107 1.64259 7.1909 1.80421 7.40561C2.27708 8.03383 2.9272 8.51185 3.67595 8.77451C4.4247 9.03716 5.23097 9.07002 5.99268 8.87488C6.25301 8.80818 6.3763 8.52284 6.27851 8.27252C6.18071 8.02221 5.89867 7.90279 5.63593 7.95925C5.09396 8.07572 4.52706 8.04172 3.99809 7.85617C3.46913 7.67061 3.00522 7.34301 2.65477 6.9135C2.48488 6.70527 2.19004 6.62233 1.95731 6.7567Z" stroke="#98BBFF" stroke-width="0.4" mask="url(#path-4-outside-3)"/>
</svg>
