<svg width="74" height="74" viewBox="0 0 74 74" fill="none" xmlns="http://www.w3.org/2000/svg">
<path fill-rule="evenodd" clip-rule="evenodd" d="M29.9552 0.938111C22.8561 2.33308 16.2896 5.79821 11.1105 10.9443C5.9315 16.0903 2.42448 22.6346 0.98418 29.7246C0.277006 33.2057 2.97501 36.1201 6.2217 36.3764C9.59089 36.6424 12.2671 34.1265 12.988 31.1748C14.0644 26.7676 16.3379 22.7138 19.5921 19.4802C22.8464 16.2467 26.9147 13.9992 31.3287 12.951C34.2849 12.249 36.8178 9.58884 36.5734 6.21802C36.3379 2.96977 33.4408 0.253194 29.9552 0.938111Z" fill="#98BBFF"/>
<path fill-rule="evenodd" clip-rule="evenodd" d="M36.879 52.3137C45.2153 52.3137 51.9731 45.5558 51.9731 37.2196C51.9731 28.8833 45.2153 22.1255 36.879 22.1255C28.5428 22.1255 21.7849 28.8833 21.7849 37.2196C21.7849 45.5558 28.5428 52.3137 36.879 52.3137ZM36.879 43.5507C40.3756 43.5507 43.2101 40.7162 43.2101 37.2196C43.2101 33.723 40.3756 30.8885 36.879 30.8885C33.3824 30.8885 30.5479 33.723 30.5479 37.2196C30.5479 40.7162 33.3824 43.5507 36.879 43.5507Z" fill="#98BBFF"/>
<path fill-rule="evenodd" clip-rule="evenodd" d="M69.792 53.8639C73.097 47.428 74.4472 40.1271 73.6183 32.8733C72.7894 25.6195 69.8269 18.8114 65.1553 13.287C62.8616 10.5746 58.9023 10.8858 56.6891 13.2749C54.3923 15.7542 54.7081 19.4138 56.5778 21.8088C59.3695 25.385 61.1419 29.6815 61.6628 34.2394C62.1836 38.7974 61.4261 43.383 59.5132 47.4968C58.232 50.2519 58.7499 53.8883 61.5467 55.7856C64.2419 57.6139 68.1694 57.0238 69.792 53.8639Z" fill="#98BBFF"/>
<path fill-rule="evenodd" clip-rule="evenodd" d="M7.64696 59.1861C11.998 64.9664 17.9797 69.3648 24.8691 71.7815C31.7585 74.1982 39.1771 74.5005 46.1856 72.705C49.6267 71.8234 51.0729 68.1246 49.8878 65.0911C48.6579 61.9431 45.2268 60.6318 42.2562 61.2702C37.8207 62.2233 33.1812 61.9451 28.8523 60.4265C24.5233 58.908 20.7267 56.227 17.8586 52.7118C15.9378 50.3576 12.4394 49.2381 9.51251 50.928C6.69205 52.5563 5.51067 56.3481 7.64696 59.1861Z" fill="#98BBFF"/>
</svg>
