<svg width="8" height="8" viewBox="0 0 8 8" fill="none" xmlns="http://www.w3.org/2000/svg">
<circle cx="4" cy="4" r="3.6" stroke="#98BBFF" stroke-width="0.8"/>
<path d="M5.98779 3.44374C5.95854 3.35379 5.88074 3.28826 5.78716 3.27467L4.70613 3.11787L4.22243 2.13844C4.18053 2.05366 4.09418 1.99998 3.99963 1.99998C3.90502 2.00001 3.81862 2.05373 3.77678 2.13857L3.29362 3.11824L2.21267 3.27561C2.11906 3.28923 2.04133 3.35483 2.01213 3.44479C1.98293 3.53474 2.00733 3.63349 2.07507 3.69949L2.85749 4.46176L2.67313 5.53842C2.65715 5.63165 2.69552 5.72586 2.77206 5.78144C2.81534 5.81288 2.86658 5.82886 2.91807 5.82886C2.95763 5.82886 2.99737 5.81941 3.03375 5.80028L4.00047 5.29171L4.96747 5.79976C5.05119 5.84377 5.15265 5.83641 5.22916 5.78077C5.30567 5.72516 5.34397 5.63093 5.32796 5.53772L5.14303 4.46116L5.92505 3.6985C5.99271 3.63245 6.01704 3.5337 5.98779 3.44374Z" fill="#98BBFF"/>
</svg>
