<svg width="67" height="83" viewBox="0 0 67 83" fill="none" xmlns="http://www.w3.org/2000/svg">
<path d="M12.7952 57.79L3.69966 57.0903L3 78.0801H12.0956L12.7952 57.79Z" stroke="#FA9674" stroke-width="5" stroke-linecap="round" stroke-linejoin="round"/>
<path d="M12.7952 57.79L3.69966 57.0903L3 78.0801H12.0956L12.7952 57.79Z" stroke="#98BBFF" stroke-width="5" stroke-linecap="round" stroke-linejoin="round"/>
<path d="M47.0806 66.8859C50.5789 64.7869 56.4748 61 59 61C61.5252 61 63.4778 65.0051 64.1775 65.7048C56.9477 70.6024 41.5085 80.3976 37.5905 80.3976C32.6928 80.3976 20.7986 75.5 18 75.5C15.7611 75.5 12.7973 75.2819 12.0977 75.9816L12.7973 60.5891" stroke="#FA9674" stroke-width="5" stroke-linecap="round" stroke-linejoin="round"/>
<path d="M47.0806 66.8859C50.5789 64.7869 56.4748 61 59 61C61.5252 61 63.4778 65.0051 64.1775 65.7048C56.9477 70.6024 41.5085 80.3976 37.5905 80.3976C32.6928 80.3976 20.7986 75.5 18 75.5C15.7611 75.5 12.7973 75.2819 12.0977 75.9816L12.7973 60.5891" stroke="#98BBFF" stroke-width="5" stroke-linecap="round" stroke-linejoin="round"/>
<path d="M12.7949 60.5882C16.2932 59.1889 19.0919 57.0899 25.3888 59.8885C31.6857 62.6872 40.0816 61.2879 42.1806 61.9875C44.2796 62.6872 47.0782 66.1855 47.0782 68.2844C43.7198 68.2844 36.3501 68.2844 33.085 68.2844" stroke="#FA9674" stroke-width="5" stroke-linecap="round" stroke-linejoin="round"/>
<path d="M12.7949 60.5882C16.2932 59.1889 19.0919 57.0899 25.3888 59.8885C31.6857 62.6872 40.0816 61.2879 42.1806 61.9875C44.2796 62.6872 47.0782 66.1855 47.0782 68.2844C43.7198 68.2844 36.3501 68.2844 33.085 68.2844" stroke="#98BBFF" stroke-width="5" stroke-linecap="round" stroke-linejoin="round"/>
<path d="M33.8166 21.2537C41.8941 21.2537 48.4418 27.8014 48.4418 35.8789C48.4418 43.9564 41.8941 50.5041 33.8166 50.5041C25.7391 50.5041 19.1914 43.9564 19.1914 35.8789C19.2005 27.8054 25.7431 21.2628 33.8166 21.2537Z" fill="#EEF4FF"/>
<path d="M33.8166 21.2537C41.8941 21.2537 48.4418 27.8014 48.4418 35.8789C48.4418 43.9564 41.8941 50.5041 33.8166 50.5041C25.7391 50.5041 19.1914 43.9564 19.1914 35.8789C19.2005 27.8054 25.7431 21.2628 33.8166 21.2537Z" stroke="#FA9674" stroke-width="5" stroke-linecap="round"/>
<path d="M33.8166 21.2537C41.8941 21.2537 48.4418 27.8014 48.4418 35.8789C48.4418 43.9564 41.8941 50.5041 33.8166 50.5041C25.7391 50.5041 19.1914 43.9564 19.1914 35.8789C19.2005 27.8054 25.7431 21.2628 33.8166 21.2537Z" stroke="#98BBFF" stroke-width="5" stroke-linecap="round"/>
<path d="M33.8166 12C41.8941 12 48.4418 18.5477 48.4418 26.6252C48.4418 34.7027 41.8941 41.2504 33.8166 41.2504C25.7391 41.2504 19.1914 34.7027 19.1914 26.6252C19.2005 18.5517 25.7431 12.0091 33.8166 12Z" fill="#EEF4FF"/>
<path d="M33.8166 12C41.8941 12 48.4418 18.5477 48.4418 26.6252C48.4418 34.7027 41.8941 41.2504 33.8166 41.2504C25.7391 41.2504 19.1914 34.7027 19.1914 26.6252C19.2005 18.5517 25.7431 12.0091 33.8166 12Z" stroke="#FA9674" stroke-width="5" stroke-linecap="round"/>
<path d="M33.8166 12C41.8941 12 48.4418 18.5477 48.4418 26.6252C48.4418 34.7027 41.8941 41.2504 33.8166 41.2504C25.7391 41.2504 19.1914 34.7027 19.1914 26.6252C19.2005 18.5517 25.7431 12.0091 33.8166 12Z" stroke="#98BBFF" stroke-width="5" stroke-linecap="round"/>
<path d="M33.8166 3C41.8941 3 48.4418 9.54769 48.4418 17.6252C48.4418 25.7027 41.8941 32.2504 33.8166 32.2504C25.7391 32.2504 19.1914 25.7027 19.1914 17.6252C19.2005 9.55169 25.7431 3.00914 33.8166 3Z" fill="#EEF4FF"/>
<path d="M33.8166 3C41.8941 3 48.4418 9.54769 48.4418 17.6252C48.4418 25.7027 41.8941 32.2504 33.8166 32.2504C25.7391 32.2504 19.1914 25.7027 19.1914 17.6252C19.2005 9.55169 25.7431 3.00914 33.8166 3Z" stroke="#FA9674" stroke-width="5" stroke-linecap="round"/>
<path d="M33.8166 3C41.8941 3 48.4418 9.54769 48.4418 17.6252C48.4418 25.7027 41.8941 32.2504 33.8166 32.2504C25.7391 32.2504 19.1914 25.7027 19.1914 17.6252C19.2005 9.55169 25.7431 3.00914 33.8166 3Z" stroke="#98BBFF" stroke-width="5" stroke-linecap="round"/>
</svg>
