<svg width="9" height="9" viewBox="0 0 9 9" fill="none" xmlns="http://www.w3.org/2000/svg">
<path fill-rule="evenodd" clip-rule="evenodd" d="M5.00402 3.37292L5.00402 6.26338L6.94803 4.3757C7.27093 4.0628 7.79326 4.0628 8.1155 4.3757C8.43774 4.68861 8.43774 5.19579 8.1155 5.50934L4.76234 8.76532C4.4401 9.07823 3.91712 9.07823 3.59487 8.76532L0.241716 5.50934C0.080595 5.35224 3.524e-05 5.1477 3.52376e-05 4.94252C3.52351e-05 4.7367 0.080595 4.53215 0.241716 4.3757C0.563957 4.0628 1.08628 4.0628 1.40918 4.3757L3.35319 6.26338L3.35319 3.37292C3.35319 2.9305 3.72298 2.57143 4.17861 2.57143C4.63423 2.57143 5.00402 2.9305 5.00402 3.37292Z" fill="#98BBFF"/>
<circle cx="4.17854" cy="0.964303" r="0.964286" transform="rotate(-180 4.17854 0.964303)" fill="#98BBFF"/>
</svg>
