<svg width="8" height="8" viewBox="0 0 8 8" fill="none" xmlns="http://www.w3.org/2000/svg">
<path d="M0.960877 4.3689C0.945435 4.24023 0.9375 4.11243 0.9375 4C0.9375 2.32184 2.32184 0.9375 4 0.9375C4.78278 0.9375 5.51563 1.25311 6.05469 1.7453L5.78436 2.02032C5.72345 2.08124 5.70001 2.17029 5.72345 2.2547C5.75159 2.33435 5.8172 2.39532 5.90155 2.41406C5.94873 2.42352 7.49866 2.92297 7.39996 2.90314C7.52551 2.94495 7.71118 2.81104 7.67658 2.62659C7.66705 2.57935 7.32391 0.857605 7.34375 0.956238C7.32501 0.871887 7.26404 0.801575 7.17969 0.778137C7.10004 0.7547 7.01093 0.778137 6.95001 0.83905L6.72034 1.06403C6.01251 0.403137 5.04059 0 4 0C1.80157 0 0 1.80157 0 4V4.00934C0 4.14148 0.00604249 4.24359 0.0130615 4.32172C0.0223999 4.42523 0.0986939 4.51001 0.200623 4.53046L0.682129 4.62671C0.838867 4.65808 0.979797 4.52667 0.960877 4.3689Z" fill="#98BBFF"/>
<path d="M7.80067 3.46918L7.31776 3.37079C7.16084 3.33881 7.01893 3.47034 7.03822 3.62885C7.05494 3.76563 7.06239 3.89863 7.06239 4.00001C7.06239 5.67811 5.67805 7.06251 3.99989 7.06251C3.21711 7.06251 2.48426 6.74689 1.9452 6.25001L2.21552 5.97968C2.27644 5.91877 2.29987 5.82972 2.27644 5.74531C2.2483 5.66559 2.18269 5.60468 2.09834 5.58594C2.05116 5.57642 0.501228 5.07703 0.599922 5.09687C0.52021 5.08283 0.440498 5.10627 0.388985 5.16248C0.33271 5.21406 0.309273 5.29841 0.323311 5.37342C0.332832 5.4206 0.676033 7.12672 0.656197 7.02808C0.674873 7.11249 0.735848 7.18281 0.820198 7.20618C0.918037 7.23072 0.999703 7.20106 1.04987 7.14527L1.27491 6.92029C1.98267 7.58124 2.9546 8.00001 3.99989 8.00001C6.19831 8.00001 7.99989 6.19843 7.99989 4.00001V3.98591C7.99989 3.88203 7.9961 3.78004 7.98743 3.67866C7.97852 3.57508 7.90253 3.49 7.80067 3.46918Z" fill="#98BBFF"/>
<circle cx="4" cy="4" r="1" fill="#98BBFF"/>
</svg>
