<svg width="8" height="8" viewBox="0 0 8 8" fill="none" xmlns="http://www.w3.org/2000/svg">
<path d="M5.83214 7.99769H0.166633C0.0746514 7.99769 0 7.92304 0 7.83106C0 7.73908 0.0746514 7.66443 0.166633 7.66443H5.83214C5.92412 7.66443 5.99877 7.73908 5.99877 7.83106C5.99877 7.92304 5.92412 7.99769 5.83214 7.99769Z" fill="#98BBFF"/>
<path d="M7.12112 3.22792C7.12045 3.22792 7.12012 3.22792 7.11945 3.22792C6.98548 3.22759 6.85984 3.1746 6.76553 3.07962L4.92457 1.21767C4.73194 1.02271 4.73294 0.706439 4.9269 0.512812L5.29349 0.14622C5.48812 -0.0487401 5.80572 -0.0487401 6.00035 0.14622L7.85197 1.99751C8.04693 2.19247 8.04693 2.50974 7.85197 2.7047L7.47471 3.08195C7.38007 3.17594 7.25476 3.22792 7.12112 3.22792Z" fill="#98BBFF"/>
<path d="M1.95096 4.19372C1.87931 4.19372 1.81299 4.14707 1.79133 4.07508C1.73367 3.88345 1.70435 3.68449 1.70435 3.48387C1.70435 3.16893 1.77966 2.851 1.9213 2.56372C2.18958 2.0275 2.67848 1.63491 3.26303 1.48594L5.08599 1.0227C5.17597 0.998708 5.26562 1.05403 5.28828 1.14301C5.31094 1.23199 5.25695 1.32298 5.16797 1.3453L3.34501 1.80854C2.85444 1.93385 2.44453 2.26312 2.21991 2.71203C2.10093 2.95298 2.03761 3.21992 2.03761 3.48387C2.03761 3.65183 2.06194 3.81847 2.11026 3.97943C2.13692 4.06741 2.08693 4.1604 1.99862 4.18706C1.98262 4.19139 1.96663 4.19372 1.95096 4.19372Z" fill="#98BBFF"/>
<path d="M5.17125 7.9976H0.833137C0.741155 7.9976 0.666504 7.92295 0.666504 7.83096V4.16505C0.666504 4.07306 0.741155 3.99841 0.833137 3.99841H4.48939C4.58137 3.99841 4.65602 4.07306 4.65602 4.16505C4.65602 4.25703 4.58137 4.33168 4.48939 4.33168H0.999769H4.76828C4.76828 3.53118 5.07927 4.96555 5.17125 4.96555C5.26323 4.96555 5.33788 5.0402 5.33788 5.13218V7.83096C5.33788 7.92295 5.26323 7.9976 5.17125 7.9976Z" fill="#98BBFF"/>
<path d="M4.15287 5.99802L5.38339 4.92131L5.22957 4.30605L4.92194 3.6908L3.99905 4.45987L3.22998 5.53657V5.8442L3.69142 6.30565L4.15287 5.99802Z" fill="white"/>
<path d="M3.744 6.49521C3.47605 6.49521 3.2341 6.35724 3.09646 6.12629C2.92083 5.83101 2.97749 5.44443 3.2341 5.18648L4.41086 4.00772C4.27089 3.84009 4.0656 3.74844 3.84031 3.75977C3.60269 3.7721 3.39007 3.90308 3.27209 4.11003C3.22577 4.19035 3.12346 4.21734 3.04447 4.17202C2.96482 4.12636 2.93683 4.02472 2.98215 3.94473C3.15678 3.63913 3.47105 3.4455 3.82265 3.42684C4.17291 3.40784 4.50717 3.56814 4.71313 3.85409L4.76512 3.9264C4.81178 3.99139 4.80578 4.08071 4.75046 4.13869L3.46938 5.42177C3.32275 5.5694 3.28576 5.79402 3.38207 5.95566C3.51837 6.18528 3.85897 6.2236 4.0456 6.03731L5.49264 4.56761L6.65273 2.77997C6.70306 2.70265 6.80637 2.68099 6.88302 2.73098C6.96001 2.78097 6.982 2.88428 6.93168 2.96127L5.76225 4.76323C5.75625 4.7729 5.74925 4.78156 5.74125 4.78989L4.28189 6.27226C4.13858 6.41623 3.94762 6.49521 3.744 6.49521Z" fill="#98BBFF"/>
</svg>