<svg width="32" height="32" viewBox="0 0 32 32" fill="none" xmlns="http://www.w3.org/2000/svg">
<circle cx="16" cy="16" r="16" fill="#9C4CFF"/>
<path d="M15.9058 6.54492C14.7388 6.54492 13.7926 10.7775 13.7926 15.9987C13.7926 21.2199 14.7388 25.4525 15.9058 25.4525C17.0727 25.4525 18.019 21.2199 18.019 15.9987C18.019 10.7775 17.0727 6.54492 15.9058 6.54492ZM16.0517 24.919C15.9182 25.097 15.7848 24.9634 15.7848 24.9634C15.2474 24.3407 14.9787 23.1839 14.9787 23.1839C14.0387 20.1587 14.2624 13.6634 14.2624 13.6634C14.7042 8.50684 15.5078 7.28869 15.7812 7.01826C15.8092 6.99065 15.8459 6.97379 15.8851 6.97062C15.9242 6.96746 15.9632 6.9782 15.9952 7.00096C16.392 7.28212 16.7248 8.45797 16.7248 8.45797C17.7075 12.106 17.6185 15.5316 17.6185 15.5316C17.7075 18.5123 17.1261 21.8489 17.1261 21.8489C16.6785 24.3847 16.0517 24.919 16.0517 24.919Z" fill="white" stroke="white" stroke-width="0.3"/>
<path d="M24.105 11.2948C23.524 10.2822 19.3821 11.5679 14.8511 14.1661C10.32 16.7643 7.12387 19.6916 7.70444 20.7037C8.28502 21.7158 12.4273 20.4306 16.9584 17.8324C21.4894 15.2342 24.6856 12.3069 24.105 11.2948ZM8.24048 20.5648C8.01804 20.5368 8.06828 20.354 8.06828 20.354C8.34115 19.5781 9.20946 18.7693 9.20946 18.7693C11.3667 16.4484 17.1124 13.4102 17.1124 13.4102C21.8046 11.2272 23.262 11.3193 23.6317 11.4211C23.6697 11.4317 23.7027 11.4553 23.7248 11.4879C23.747 11.5205 23.7569 11.5599 23.7528 11.5991C23.7084 12.0834 22.8519 12.9569 22.8519 12.9569C20.1785 15.6257 17.1626 17.2536 17.1626 17.2536C14.6214 18.8146 11.4379 19.97 11.4379 19.97C9.01556 20.8429 8.24056 20.5648 8.24056 20.5648H8.24048Z" fill="white" stroke="white" stroke-width="0.3"/>
<path d="M24.0836 20.737C24.6691 19.7271 21.481 16.7865 16.9658 14.1687C12.4507 11.551 8.30935 10.2494 7.72437 11.261C7.13938 12.2726 10.327 15.2116 14.8447 17.8293C19.3624 20.447 23.4986 21.7487 24.0836 20.737ZM8.11234 11.6512C8.02585 11.4462 8.20842 11.3968 8.20842 11.3968C9.01672 11.2441 10.1521 11.592 10.1521 11.592C13.2409 12.2954 18.7487 15.7454 18.7487 15.7454C22.9894 18.7128 23.6397 20.0199 23.7372 20.3909C23.7471 20.429 23.7432 20.4693 23.7263 20.5048C23.7094 20.5403 23.6805 20.5686 23.6447 20.5849C23.2025 20.7874 22.0181 20.4857 22.0181 20.4857C18.3678 19.5069 15.4485 17.7137 15.4485 17.7137C12.8255 16.2989 10.2318 14.1221 10.2318 14.1221C8.26101 12.4627 8.11294 11.6535 8.11294 11.6535L8.11234 11.6512Z" fill="white" stroke="white" stroke-width="0.3"/>
<path d="M15.9989 16.4988C16.275 16.4988 16.4989 16.2749 16.4989 15.9988C16.4989 15.7226 16.275 15.4988 15.9989 15.4988C15.7228 15.4988 15.4989 15.7226 15.4989 15.9988C15.4989 16.2749 15.7228 16.4988 15.9989 16.4988Z" fill="white" stroke="white" stroke-width="0.3"/>
<path d="M20.4432 12.373C20.7995 12.373 21.0883 12.0742 21.0883 11.7056C21.0883 11.3371 20.7995 11.0383 20.4432 11.0383C20.0869 11.0383 19.7981 11.3371 19.7981 11.7056C19.7981 12.0742 20.0869 12.373 20.4432 12.373Z" fill="white" stroke="white" stroke-width="0.3"/>
<path d="M9.85566 14.6425C10.2119 14.6425 10.5008 14.3437 10.5008 13.9752C10.5008 13.6066 10.2119 13.3079 9.85566 13.3079C9.49939 13.3079 9.21057 13.6066 9.21057 13.9752C9.21057 14.3437 9.49939 14.6425 9.85566 14.6425Z" fill="white" stroke="white" stroke-width="0.3"/>
<path d="M14.5712 22.8284C14.9275 22.8284 15.2163 22.5296 15.2163 22.1611C15.2163 21.7925 14.9275 21.4938 14.5712 21.4938C14.215 21.4938 13.9261 21.7925 13.9261 22.1611C13.9261 22.5296 14.215 22.8284 14.5712 22.8284Z" fill="white" stroke="white" stroke-width="0.3"/>
</svg>
