<svg width="52" height="52" viewBox="0 0 52 52" fill="none" xmlns="http://www.w3.org/2000/svg">
<g id="Group 2102">
<circle id="Ellipse 125" cx="26" cy="26" r="26" fill="#3D467F"/>
<g id="Group 164">
<g id="Group 97">
<g id="Group 46">
<path id="Intersect" fill-rule="evenodd" clip-rule="evenodd" d="M27.5127 13.6471L28.2919 15.0057L12.0011 36.4461C11.9908 36.1778 12.0484 35.9006 12.1873 35.6377L24.8356 13.7867C25.4308 12.7866 26.8415 12.74 27.5127 13.6471Z" fill="white"/>
<path id="Intersect_2" fill-rule="evenodd" clip-rule="evenodd" d="M29.7261 17.449L12.0293 36.6868C12.046 36.7734 12.0697 36.8583 12.1 36.9405L31.6342 20.7451L29.7261 17.449Z" fill="white"/>
<path id="Intersect_3" fill-rule="evenodd" clip-rule="evenodd" d="M33.1126 23.2993L12.173 37.1094C12.207 37.1771 12.2457 37.2425 12.2887 37.3048L34.9835 26.5311L33.1126 23.2993Z" fill="white"/>
<path id="Intersect_4" fill-rule="evenodd" clip-rule="evenodd" d="M12.5923 37.6365L38.33 32.32L36.3649 28.9209L12.3947 37.4425C12.4547 37.5124 12.5208 37.5774 12.5923 37.6365Z" fill="white"/>
<path id="Intersect_5" fill-rule="evenodd" clip-rule="evenodd" d="M40.2821 35.6931L39.7112 34.7099L12.794 37.778C13.0299 37.9178 13.3082 37.9999 13.6151 37.9999H38.8267C40.0254 37.9999 40.7897 36.7468 40.2821 35.6931Z" fill="white"/>
</g>
</g>
</g>
</g>
</svg>
