<svg width="64" height="64" viewBox="0 0 64 64" fill="none" xmlns="http://www.w3.org/2000/svg">
<circle cx="32" cy="32" r="32" fill="#F7CC2F"/>
<path fill-rule="evenodd" clip-rule="evenodd" d="M48.9148 15.1992C47.9718 15.3715 46.7494 15.6465 46.1985 15.8105C44.4261 16.3379 41.828 18.1053 40.2008 19.8906L38.6543 21.5873L37.4408 21.2023C34.2188 20.18 30.6629 20.2657 27.7093 21.4368L26.1922 22.038L24.3424 20.1161C21.9582 17.6386 19.9758 16.5314 16.6214 15.8035C12.9322 15.003 12.6117 15.181 12.2575 18.2259C11.8321 21.886 11.9354 24.9146 12.555 26.9334C12.8501 27.8948 13.1653 28.7375 13.2554 28.8062C13.3457 28.8749 13.653 29.4367 13.9387 30.0547C14.6748 31.648 15.5797 33.0396 17.1435 34.9833C18.0408 36.0982 18.5035 36.8895 18.5063 37.313C18.5083 37.6658 18.6759 38.5647 18.8787 39.3106C20.2073 44.2027 23.4593 47.8259 28.0792 49.5621C29.6933 50.1688 29.8966 50.1529 29.3054 49.4654C28.6518 48.7056 28.1116 47.2359 28.1116 46.2173C28.1116 44.8659 29.1705 42.8676 30.4317 41.8393C32.2217 40.3796 32.4549 39.5955 32.456 35.0322C32.4567 31.6308 32.51 31.083 32.9098 30.3668C33.4105 29.4699 34.0398 29.3243 34.6296 29.9685C35.2622 30.6592 35.4293 31.478 35.6382 34.9039C35.7608 36.9182 35.9834 38.5705 36.213 39.1703C36.4189 39.7089 37.2883 40.9402 38.1451 41.9065C40.0707 44.0786 40.4564 44.8697 40.4564 46.6473C40.4564 47.4096 40.5391 48.0332 40.6404 48.0332C41.0368 48.0332 43.8116 45.3029 44.5175 44.2185L45.2639 43.0718L44.5191 43.3051C42.6512 43.8904 40.938 43.384 39.5106 41.8248C37.3896 39.5081 37.3889 36.2922 39.5092 34.0452C41.6174 31.8106 44.31 31.7329 46.505 33.8434L47.4972 34.7973L48.1922 33.9325C50.4807 31.0855 52.4557 26.8138 52.8502 23.8576C53.0754 22.1691 53.0564 21.4807 52.7266 19.403C52.5121 18.0513 52.3382 16.6503 52.3402 16.2892C52.3471 15.0482 51.3981 14.746 48.9148 15.1992ZM49.7149 17.9864C47.1028 18.6399 44.4451 19.9698 42.2991 21.697L40.8269 22.882L41.7276 23.6501C44.0603 25.64 45.8087 28.3785 46.7332 31.4905C46.9474 32.2116 47.1632 32.8014 47.2126 32.8014C47.262 32.8014 47.6675 32.2116 48.1137 31.4905C49.5825 29.1173 50.6481 24.5298 50.7944 19.9498C50.8618 17.8416 50.793 17.7167 49.7149 17.9864ZM15.082 20.0042C15.0831 22.4838 15.6272 26.1409 16.3393 28.4586C16.8937 30.2619 18.2283 32.9427 18.4509 32.6995C18.5147 32.6299 18.787 31.8593 19.0556 30.9871C19.7945 28.5892 20.9505 26.699 22.9202 24.6689L24.7013 22.8331L23.606 21.9539C21.9125 20.5943 19.2426 19.153 17.3655 18.5847C16.4285 18.301 15.5312 18.0691 15.3714 18.0691C15.1615 18.0691 15.0813 18.6057 15.082 20.0042ZM23.4069 32.89C19.6059 34.2472 18.5927 39.7703 21.6411 42.515C24.5728 45.1544 29.107 43.4506 29.8952 39.4132C30.71 35.2415 27.0701 31.5821 23.4069 32.89ZM41.8865 33.3173C40.1775 33.8859 38.8675 36.299 39.1974 38.2721C39.3947 39.4527 39.9472 40.3676 40.359 40.195C40.901 39.9678 41.3708 40.3109 41.3708 40.9334C41.3708 41.8099 42.7911 42.2301 44.2478 41.7846C46.9056 40.9719 48.0552 37.7135 46.5981 35.1236C45.7207 33.5645 43.5944 32.7492 41.8865 33.3173ZM23.6959 33.6626C22.5912 34.0929 22.0099 34.6684 21.4327 35.9039C20.8399 37.1727 20.9524 39.1291 21.6825 40.2492C22.1683 40.9946 22.2211 41.0148 22.7268 40.653C23.2069 40.3094 23.2958 40.3114 23.6275 40.674C23.9025 40.9744 23.9375 41.1953 23.7654 41.5464C23.5642 41.9572 23.6394 42.0381 24.3595 42.1857C25.9245 42.5065 27.9255 41.3931 28.6914 39.7758C29.1118 38.8879 29.1227 37.0336 28.7142 35.9654C28.3167 34.9261 27.194 33.8921 26.1042 33.5615C25.0273 33.2349 24.7657 33.2459 23.6959 33.6626ZM43.4282 34.5493C43.1768 34.824 42.971 35.1923 42.971 35.3676C42.971 35.9818 43.6861 36.7966 44.2249 36.7966C45.3611 36.7966 45.9047 35.2907 45.0676 34.4632C44.5121 33.9141 43.9844 33.9418 43.4282 34.5493ZM25.4193 34.6884C24.4656 35.418 24.9852 37.0463 26.1719 37.0463C26.7107 37.0463 27.4258 36.2315 27.4258 35.6173C27.4258 35.442 27.2201 35.0737 26.9686 34.799C26.4183 34.198 26.0907 34.1745 25.4193 34.6884ZM32.7409 44.5326C31.7014 45.0143 32.2528 46.1552 33.8848 46.9C35.1605 47.4821 35.625 47.3762 36.635 46.2733C37.505 45.3229 37.5371 45.237 37.1727 44.839C36.7232 44.3478 33.6046 44.1323 32.7409 44.5326Z" fill="#373635"/>
</svg>
