<svg width="32" height="32" viewBox="0 0 32 32" fill="none" xmlns="http://www.w3.org/2000/svg">
<circle cx="16" cy="16" r="16" fill="#F0B4FF"/>
<path d="M24.4737 10.0726C24.2835 9.34014 23.6721 8.60765 22.5716 7.79225C21.6884 7.14268 20.751 6.76953 20.0037 6.76953C19.8542 6.76953 19.7184 6.78335 19.5825 6.81099C19.2428 6.88009 18.944 7.12886 18.7538 7.50202C18.5228 7.94427 18.4684 8.53855 18.6179 8.89789C18.6722 9.00845 18.7402 9.14665 18.8217 9.27104C18.1016 9.71329 17.694 9.83768 17.6396 9.8515C19.5146 10.4872 21.077 11.814 22.0553 13.5415L22.0689 13.3757C22.1096 12.9196 22.2455 12.3945 22.4357 11.8555C22.6259 11.9108 22.8161 11.9384 23.0063 11.9384C23.5091 11.9384 23.9438 11.7311 24.2155 11.3579C24.4873 10.9848 24.596 10.4872 24.4737 10.0726Z" fill="#5E12A0"/>
<path d="M22.5178 11.455C23.7542 11.8005 24.2568 10.833 24.0938 10.1835C23.9172 9.53392 23.3466 8.87054 22.3412 8.12423C21.3357 7.37793 20.3168 7.07388 19.6646 7.21208C19.0125 7.35028 18.8222 8.35918 18.9853 8.74615C19.0532 8.89818 19.2027 9.11931 19.4064 9.36807C19.1483 9.54774 18.9037 9.68595 18.7 9.81033C19.9499 10.377 21.0369 11.2615 21.852 12.3671C21.9471 11.994 22.083 11.6623 22.2053 11.372C22.3004 11.3859 22.4091 11.4135 22.5178 11.455Z" fill="url(#paint0_radial_7330_5011)"/>
<path d="M15.4387 24.9989C19.6332 24.9989 23.0335 21.54 23.0335 17.2733C23.0335 13.0065 19.6332 9.54761 15.4387 9.54761C11.2441 9.54761 7.84375 13.0065 7.84375 17.2733C7.84375 21.54 11.2441 24.9989 15.4387 24.9989Z" fill="url(#paint1_radial_7330_5011)"/>
<path opacity="0.6" d="M23.4693 9.54733C22.4368 8.44169 21.5672 8.15146 20.5211 7.91651C19.7059 7.72303 19.9232 7.25313 20.9151 7.34988C20.4395 7.18403 19.9912 7.14257 19.6651 7.21167C19.013 7.34988 18.8227 8.35877 18.9858 8.74574C19.0537 8.89777 19.2032 9.1189 19.4069 9.36767C19.0401 9.61643 18.7276 9.7961 18.4695 9.9343C18.5918 9.98959 18.7412 10.0587 18.9179 10.1554C19.3798 10.4042 19.8825 10.8188 19.8825 10.8188C19.1216 10.1554 19.2847 9.85138 20.3308 9.10507C20.6569 8.87013 21.2547 8.89777 21.8118 9.188C22.3688 9.47823 23.021 10.2107 23.021 10.2107L22.396 11.4269C22.4368 11.4407 22.4775 11.4546 22.5183 11.4684C22.9123 11.5789 23.2248 11.5513 23.4693 11.4546C23.7547 11.2749 24.5019 10.6668 23.4693 9.54733Z" fill="#A98698"/>
<path d="M20.5068 8.57919C20.7786 8.68976 21.1318 8.88324 21.5666 9.17347C22.0829 9.51899 22.5312 9.90596 22.8166 10.21C22.341 10.8457 22.0285 11.7164 21.8383 12.3246C21.9334 12.4628 22.0421 12.6009 22.1372 12.7391C22.2323 12.3937 22.3954 11.8823 22.6127 11.3709C22.6671 11.3848 22.735 11.3848 22.803 11.3848C22.966 11.3848 23.1562 11.3571 23.3056 11.2327C23.4143 11.1498 23.5366 10.9978 23.5231 10.7214C23.5231 10.4588 23.3192 10.1271 22.8981 9.72629C22.5991 9.43606 22.1916 9.11819 21.784 8.82796C20.6155 8.04019 19.8003 7.81907 19.4335 8.19222C19.1889 8.44099 19.2161 8.74504 19.2976 8.96617C18.8629 9.2564 18.496 9.4637 18.2515 9.60191C18.4145 9.65719 18.5639 9.72629 18.727 9.7954C19.1618 9.56045 19.7867 9.15965 20.5068 8.57919ZM23.0747 10.5555C23.1154 10.6246 23.129 10.6937 23.129 10.7352C23.129 10.8596 23.0883 10.9011 23.0611 10.9287C23.0068 10.9702 22.8981 10.9978 22.803 10.9978C22.8845 10.8319 22.9796 10.6937 23.0747 10.5555ZM19.7188 8.49627C19.7596 8.45481 19.8682 8.42717 20.0449 8.45481C19.909 8.56537 19.7731 8.66212 19.6373 8.75886C19.6237 8.66212 19.6373 8.56537 19.7188 8.49627Z" fill="#5E12A0"/>
<path d="M15.4385 9.09216C10.9957 9.09216 7.39526 12.7546 7.39526 17.2739C7.39526 21.7932 10.9957 25.4556 15.4385 25.4556C19.8813 25.4556 23.4817 21.7932 23.4817 17.2739C23.4817 12.7546 19.8677 9.09216 15.4385 9.09216ZM15.4385 24.9996C11.2403 24.9996 7.84362 21.5444 7.84362 17.2739C7.84362 13.0034 11.2403 9.54824 15.4385 9.54824C19.6367 9.54824 23.0334 13.0034 23.0334 17.2739C23.0334 21.5444 19.6232 24.9996 15.4385 24.9996Z" fill="#5E12A0"/>
<path opacity="0.6" d="M15.4387 24.9989C19.6332 24.9989 23.0335 21.54 23.0335 17.2733C23.0335 13.0065 19.6332 9.54761 15.4387 9.54761C11.2441 9.54761 7.84375 13.0065 7.84375 17.2733C7.84375 21.54 11.2441 24.9989 15.4387 24.9989Z" fill="url(#paint2_linear_7330_5011)"/>
<path opacity="0.6" d="M15.3843 24.0588C11.2404 23.3816 8.42798 19.4151 9.1073 15.1999C9.40621 13.3341 10.3301 11.7448 11.6344 10.5977C9.73228 11.7171 8.31929 13.6658 7.93886 16.0429C7.27312 20.2582 10.0855 24.2247 14.2159 24.9018C16.5256 25.2888 18.7538 24.5564 20.3977 23.119C18.944 23.9759 17.1777 24.349 15.3843 24.0588Z" fill="#A98698"/>
<path opacity="0.6" d="M16.6462 9.65797C14.7305 9.3401 12.8691 9.78235 11.3474 10.7636C11.3202 10.7913 11.2931 10.8189 11.2931 10.8189C11.8773 10.4596 12.7332 10.1417 12.7332 10.1417C10.5322 11.4408 9.85291 12.9196 9.85291 12.9196C10.7089 11.2335 13.2224 10.0449 15.1924 9.96202C17.1625 9.8791 18.4532 10.4734 20.0292 11.7587C21.6053 13.0578 22.5563 15.7113 22.4612 17.8121C22.3797 19.9128 21.2928 21.6127 21.2928 21.6127C22.04 20.6314 22.4884 19.9128 22.7737 19.1803C22.828 18.9591 22.8824 18.738 22.9096 18.5031C23.5889 14.3016 20.7901 10.3352 16.6462 9.65797Z" fill="url(#paint3_linear_7330_5011)"/>
<path d="M22.6526 17.2039C22.6526 21.2533 19.419 24.5425 15.4381 24.5425C11.4573 24.5425 8.21008 21.2533 8.21008 17.2039H22.6526Z" fill="url(#paint4_linear_7330_5011)"/>
<g opacity="0.6">
<path opacity="0.6" d="M22.0829 17.2039C22.0829 21.1565 19.0124 24.3905 15.1538 24.5425C15.2489 24.5425 15.344 24.5425 15.4391 24.5425C19.42 24.5425 22.6536 21.2533 22.6536 17.2039H22.0829Z" fill="url(#paint5_linear_7330_5011)"/>
</g>
<g opacity="0.7">
<path opacity="0.7" d="M9.22907 17.2054H8.21008C8.21008 21.2549 11.4437 24.5441 15.4245 24.5441C15.6012 24.5441 15.7642 24.5441 15.9273 24.5303C12.1909 24.2539 9.22907 21.0752 9.22907 17.2054Z" fill="url(#paint6_linear_7330_5011)"/>
</g>
<path d="M22.6391 17.2737C22.6391 16.4307 21.1989 15.947 19.2833 15.7811C17.8974 15.6705 16.498 15.8087 14.8948 16.3063C13.509 16.7209 12.259 16.6518 11.3487 16.5412C9.3243 16.3063 8.21021 16.2786 8.21021 17.2737C8.21021 18.711 11.0906 20.5077 15.4111 19.8858C17.5985 19.5679 18.7262 18.9183 20.0169 18.4761C21.4163 18.0062 22.6391 18.02 22.6391 17.2737Z" fill="url(#paint7_linear_7330_5011)"/>
<g opacity="0.6">
<path opacity="0.6" d="M21.6484 11.5515C21.6348 11.5515 21.6212 11.5515 21.6212 11.5515C21.5397 11.5377 21.4853 11.4548 21.4989 11.358C21.6212 10.7223 22.1375 10.1142 22.1646 10.0865C22.219 10.0174 22.3277 10.0174 22.3821 10.0727C22.45 10.128 22.45 10.2386 22.3956 10.2938C22.3821 10.3077 21.9065 10.8743 21.7978 11.4271C21.7842 11.5101 21.7163 11.5515 21.6484 11.5515Z" fill="url(#paint8_linear_7330_5011)"/>
</g>
<defs>
<radialGradient id="paint0_radial_7330_5011" cx="0" cy="0" r="1" gradientUnits="userSpaceOnUse" gradientTransform="translate(23.846 9.31278) scale(6.07241 6.17697)">
<stop stop-color="#FFEAFF" stop-opacity="0.6"/>
<stop offset="0.6807" stop-color="#A087C9"/>
<stop offset="1" stop-color="#10002F"/>
</radialGradient>
<radialGradient id="paint1_radial_7330_5011" cx="0" cy="0" r="1" gradientUnits="userSpaceOnUse" gradientTransform="translate(20.4671 11.9471) scale(14.857 15.1129)">
<stop stop-color="#FFEAFF" stop-opacity="0.6"/>
<stop offset="0.6807" stop-color="#A087C9"/>
<stop offset="1" stop-color="#10002F"/>
</radialGradient>
<linearGradient id="paint2_linear_7330_5011" x1="14.2204" y1="24.8893" x2="16.7317" y2="9.65794" gradientUnits="userSpaceOnUse">
<stop stop-color="#81FFFF"/>
<stop offset="0.6202" stop-color="white" stop-opacity="0"/>
</linearGradient>
<linearGradient id="paint3_linear_7330_5011" x1="20.7894" y1="12.0263" x2="14.4113" y2="17.7794" gradientUnits="userSpaceOnUse">
<stop offset="0.2888" stop-color="white"/>
<stop offset="0.7796" stop-color="white" stop-opacity="0"/>
</linearGradient>
<linearGradient id="paint4_linear_7330_5011" x1="8.21619" y1="20.8689" x2="22.6491" y2="20.8689" gradientUnits="userSpaceOnUse">
<stop stop-color="#0002E9"/>
<stop offset="0.9952" stop-color="#FF00C7"/>
<stop offset="0.9953" stop-color="#FF00C7"/>
</linearGradient>
<linearGradient id="paint5_linear_7330_5011" x1="23.3333" y1="17.8478" x2="15.3511" y2="25.2637" gradientUnits="userSpaceOnUse">
<stop offset="0.2888" stop-color="white"/>
<stop offset="0.7796" stop-color="white" stop-opacity="0"/>
</linearGradient>
<linearGradient id="paint6_linear_7330_5011" x1="8.21619" y1="20.8705" x2="15.9377" y2="20.8705" gradientUnits="userSpaceOnUse">
<stop stop-color="#000292"/>
<stop offset="0.9952" stop-color="#7D00C7"/>
</linearGradient>
<linearGradient id="paint7_linear_7330_5011" x1="8.22601" y1="17.8834" x2="22.6395" y2="17.8834" gradientUnits="userSpaceOnUse">
<stop stop-color="#000292"/>
<stop offset="0.9952" stop-color="#BE00C7"/>
</linearGradient>
<linearGradient id="paint8_linear_7330_5011" x1="22.4041" y1="10.0192" x2="21.3423" y2="11.7154" gradientUnits="userSpaceOnUse">
<stop offset="0.2888" stop-color="white"/>
<stop offset="0.7796" stop-color="white" stop-opacity="0"/>
</linearGradient>
</defs>
</svg>
