<svg width="19" height="22" viewBox="0 0 19 22" fill="none" xmlns="http://www.w3.org/2000/svg">
<path d="M13.8538 21.3257H0.395823C0.177329 21.3257 0 21.1266 0 20.8813C0 20.6361 0.177329 20.437 0.395823 20.437H13.8538C14.0723 20.437 14.2496 20.6361 14.2496 20.8813C14.2496 21.1266 14.0723 21.3257 13.8538 21.3257Z" fill="#321C3B"/>
<path d="M16.9163 8.60712C16.9147 8.60712 16.9139 8.60712 16.9123 8.60712C16.5941 8.60623 16.2956 8.46494 16.0716 8.21168L11.6985 3.24686C11.241 2.72701 11.2433 1.88369 11.7041 1.36739L12.5749 0.38989C13.0372 -0.129963 13.7916 -0.129963 14.254 0.38989L18.6523 5.32627C19.1155 5.84612 19.1155 6.69211 18.6523 7.21196L17.7562 8.2179C17.5314 8.4685 17.2337 8.60712 16.9163 8.60712Z" fill="#321C3B"/>
<path d="M4.63367 11.1823C4.46347 11.1823 4.30593 11.0579 4.25447 10.8659C4.11752 10.3549 4.04785 9.82443 4.04785 9.28947C4.04785 8.44971 4.22676 7.60195 4.56321 6.83594C5.20049 5.40612 6.36183 4.35931 7.75038 3.96209L12.0807 2.72688C12.2944 2.6629 12.5074 2.81041 12.5612 3.04768C12.615 3.28495 12.4868 3.52754 12.2754 3.58708L7.94513 4.82229C6.77982 5.15642 5.8061 6.03439 5.27253 7.23139C4.98991 7.87387 4.8395 8.58567 4.8395 9.28947C4.8395 9.73734 4.89729 10.1817 5.01208 10.6109C5.07541 10.8455 4.95666 11.0934 4.74688 11.1645C4.70888 11.176 4.67088 11.1823 4.63367 11.1823V11.1823Z" fill="#321C3B"/>
<path fill-rule="evenodd" clip-rule="evenodd" d="M12.5495 13.3563L9.86464 15.9933L8.76849 16.8135L7.67235 15.5831V14.7628L9.49926 11.8918L9.86417 11.5505L10.7896 10.6849C10.75 10.67 10.7076 10.6619 10.6635 10.6619H1.97834C1.75985 10.6619 1.58252 10.8609 1.58252 11.1062V20.8812C1.58252 21.1265 1.75985 21.3255 1.97834 21.3255H12.2833C12.5018 21.3255 12.6791 21.1265 12.6791 20.8812V13.685C12.6791 13.5548 12.6291 13.4376 12.5495 13.3563Z" fill="#321C3B"/>
<path d="M8.89347 17.3193C8.25699 17.3193 7.68226 16.9514 7.35531 16.3356C6.93812 15.5482 7.07269 14.5174 7.68226 13.8296L10.4776 10.6865C10.1451 10.2395 9.65741 9.99513 9.12226 10.0253C8.55782 10.0582 8.05275 10.4075 7.77251 10.9593C7.66247 11.1735 7.41943 11.2454 7.23181 11.1246C7.04261 11.0028 6.97611 10.7318 7.08378 10.5185C7.4986 9.70366 8.24512 9.18736 9.0803 9.1376C9.91232 9.08695 10.7063 9.51438 11.1956 10.2768L11.3191 10.4697C11.4299 10.643 11.4156 10.8811 11.2842 11.0357L8.24116 14.457C7.89284 14.8506 7.80496 15.4496 8.03375 15.8806C8.35753 16.4928 9.16659 16.595 9.60991 16.0983L13.0472 12.1794L15.8029 7.41275C15.9225 7.20659 16.1679 7.14883 16.35 7.28212C16.5328 7.41542 16.5851 7.6909 16.4655 7.89617L13.6877 12.701C13.6734 12.7268 13.6568 12.7499 13.6378 12.7721L10.1712 16.7248C9.83078 17.1087 9.37717 17.3193 8.89347 17.3193V17.3193Z" fill="#321C3B"/>
</svg>
