<svg width="50" height="50" viewBox="0 0 50 50" fill="none" xmlns="http://www.w3.org/2000/svg">
<circle cx="25" cy="25" r="24.1" stroke="black" stroke-width="1.8"/>
<path d="M31.0024 26.0037C30.4496 26.0037 30.0027 26.4516 30.0027 27.0033V31.0021C30.0027 31.5529 29.5548 32.0017 29.003 32.0017H26.0039V17.0067C26.0039 16.1529 25.4601 15.3902 24.6425 15.1063L24.3465 15.0073H29.003C29.5548 15.0073 30.0027 15.4561 30.0027 16.0071V19.0061C30.0027 19.5578 30.4496 20.0057 31.0024 20.0057C31.5551 20.0057 32.002 19.5578 32.002 19.0061V16.0071C32.002 14.3536 30.6564 13.0081 29.003 13.0081H18.2566C18.2185 13.0081 18.1867 13.0251 18.1497 13.03C18.1015 13.026 18.0556 13.0081 18.0067 13.0081C16.9041 13.0081 16.0073 13.9046 16.0073 15.0073V33.0013C16.0073 33.855 16.5512 34.6178 17.3688 34.9017L23.3849 36.9071C23.5889 36.9701 23.7917 37.0001 24.0047 37.0001C25.1074 37.0001 26.0039 36.1034 26.0039 35.0007V34.0011H29.003C30.6564 34.0011 32.002 32.6555 32.002 31.0021V27.0033C32.002 26.4516 31.5551 26.0037 31.0024 26.0037Z" fill="black"/>
<path d="M39.7072 22.2979L35.7084 18.2993C35.4227 18.0134 34.9927 17.9273 34.6189 18.0822C34.2461 18.2372 34.0021 18.602 34.0021 19.006V22.005H30.0035C29.4516 22.005 29.0037 22.4527 29.0037 23.0046C29.0037 23.5565 29.4516 24.0042 30.0035 24.0042H34.0021V27.0032C34.0021 27.4072 34.2461 27.772 34.6189 27.9271C34.9927 28.0819 35.4227 27.9959 35.7084 27.7102L39.7072 23.7114C40.098 23.3206 40.098 22.6887 39.7072 22.2979Z" fill="black"/>
</svg>
