<svg width="20" height="18" viewBox="0 0 20 18" fill="none" xmlns="http://www.w3.org/2000/svg">
<path d="M2.41273 17.7778C2.0329 17.7778 1.66451 17.7159 1.31696 17.5941L0.525513 17.3166L1.13365 16.733C1.93858 15.9606 2.14171 15.0696 2.15493 14.4023C0.763735 12.8392 1.08059e-08 10.889 1.08059e-08 8.88889C-0.000254229 3.98763 4.4858 0 9.99975 0C15.5137 0 20 3.98763 20 8.88889C20 13.7899 15.5137 17.7773 9.99975 17.7773C8.35812 17.7773 6.73862 17.4168 5.2953 16.732C4.75148 17.1223 3.65291 17.7778 2.41273 17.7778Z" fill="#321C3B"/>
<path d="M6.09808 12.2598H8.86989" stroke="white" stroke-width="0.99785" stroke-linecap="round"/>
<path d="M6.09808 8.88892H15.5222" stroke="white" stroke-width="0.99785" stroke-linecap="round"/>
<path d="M6.09808 5.51782H11.6417" stroke="white" stroke-width="0.99785" stroke-linecap="round"/>
</svg>
