<svg width="23" height="21" viewBox="0 0 23 21" fill="none" xmlns="http://www.w3.org/2000/svg">
<path d="M16.3522 0C13.1228 0 10.4956 2.53588 10.4956 5.65297C10.4956 8.77006 13.1228 11.3059 16.3522 11.3059C19.5816 11.3059 22.2088 8.77006 22.2088 5.65297C22.2088 2.53588 19.5816 0 16.3522 0ZM16.3522 8.79351C15.5661 8.79351 14.8598 8.34169 14.5536 7.64281L15.7522 7.15331C15.8546 7.38655 16.0902 7.53729 16.3522 7.53729C16.711 7.53729 17.0029 7.25548 17.0029 6.90918C17.0029 6.56289 16.711 6.28108 16.3522 6.28108C15.2759 6.28108 14.4 5.43564 14.4 4.39675C14.4 3.35786 15.2759 2.51243 16.3522 2.51243C17.1383 2.51243 17.8445 2.96425 18.1508 3.66312L16.9522 4.15263C16.8498 3.91939 16.6146 3.76865 16.3522 3.76865C15.9934 3.76865 15.7015 4.05046 15.7015 4.39675C15.7015 4.74305 15.9934 5.02486 16.3522 5.02486C17.4285 5.02486 18.3044 5.87029 18.3044 6.90918C18.3044 7.94807 17.4285 8.79351 16.3522 8.79351Z" fill="#321C3B"/>
<path d="M19.5237 11.8477C18.568 12.305 17.4921 12.5621 16.3551 12.5621C12.6277 12.5621 9.55622 9.79757 9.22608 6.28101H7.85217C6.93811 6.28101 6.06092 6.45981 5.23839 6.81322C4.57074 6.46399 3.83368 6.28101 3.08577 6.28101H1.0928L2.20685 9.50739C2.09579 9.69456 1.99948 9.87336 1.91662 10.0497H0V15.0745H1.91272C2.42116 16.1905 3.26624 17.1531 4.3278 17.8164C4.90478 18.1769 5.24924 18.7875 5.24924 19.4495V20.0994H9.15363V18.8432H13.058V20.0994H16.9624V19.4713C16.9624 18.4202 17.3477 17.3977 18.0474 16.592C19.2391 15.2202 19.7211 13.4871 19.5237 11.8477ZM6.5507 11.3059H5.24924V10.0497H6.5507V11.3059Z" fill="#321C3B"/>
</svg>
